  0
SECTION
  2
HEADER
  9
$ACADVER
  1
AC1012
  9
$DWGCODEPAGE
  3
ansi_1252
  9
$INSBASE
 10
0.0
 20
0.0
 30
0.0
  9
$EXTMIN
 10
1.000000000000000E+20
 20
1.000000000000000E+20
 30
1.000000000000000E+20
  9
$EXTMAX
 10
-1.000000000000000E+20
 20
-1.000000000000000E+20
 30
-1.000000000000000E+20
  9
$LIMMIN
 10
0.0
 20
0.0
  9
$LIMMAX
 10
12.0
 20
9.0
  9
$ORTHOMODE
 70
     0
  9
$REGENMODE
 70
     1
  9
$FILLMODE
 70
     1
  9
$QTEXTMODE
 70
     0
  9
$MIRRTEXT
 70
     1
  9
$DRAGMODE
 70
     2
  9
$LTSCALE
 40
1.0
  9
$OSMODE
 70
    37
  9
$ATTMODE
 70
     1
  9
$TEXTSIZE
 40
0.2
  9
$TRACEWID
 40
0.05
  9
$TEXTSTYLE
  7
STANDARD
  9
$CLAYER
  8
0
  9
$CELTYPE
  6
BYLAYER
  9
$CECOLOR
 62
   256
  9
$CELTSCALE
 40
1.0
  9
$DELOBJ
 70
     1
  9
$DISPSILH
 70
     0
  9
$DIMSCALE
 40
1.0
  9
$DIMASZ
 40
0.18
  9
$DIMEXO
 40
0.0625
  9
$DIMDLI
 40
0.38
  9
$DIMRND
 40
0.0
  9
$DIMDLE
 40
0.0
  9
$DIMEXE
 40
0.18
  9
$DIMTP
 40
0.0
  9
$DIMTM
 40
0.0
  9
$DIMTXT
 40
0.18
  9
$DIMCEN
 40
0.09
  9
$DIMTSZ
 40
0.0
  9
$DIMTOL
 70
     0
  9
$DIMLIM
 70
     0
  9
$DIMTIH
 70
     1
  9
$DIMTOH
 70
     1
  9
$DIMSE1
 70
     0
  9
$DIMSE2
 70
     0
  9
$DIMTAD
 70
     0
  9
$DIMZIN
 70
     0
  9
$DIMBLK
  1

  9
$DIMASO
 70
     1
  9
$DIMSHO
 70
     1
  9
$DIMPOST
  1

  9
$DIMAPOST
  1

  9
$DIMALT
 70
     0
  9
$DIMALTD
 70
     2
  9
$DIMALTF
 40
25.4
  9
$DIMLFAC
 40
1.0
  9
$DIMTOFL
 70
     0
  9
$DIMTVP
 40
0.0
  9
$DIMTIX
 70
     0
  9
$DIMSOXD
 70
     0
  9
$DIMSAH
 70
     0
  9
$DIMBLK1
  1

  9
$DIMBLK2
  1

  9
$DIMSTYLE
  2
STANDARD
  9
$DIMCLRD
 70
     0
  9
$DIMCLRE
 70
     0
  9
$DIMCLRT
 70
     0
  9
$DIMTFAC
 40
1.0
  9
$DIMGAP
 40
0.09
  9
$DIMJUST
 70
     0
  9
$DIMSD1
 70
     0
  9
$DIMSD2
 70
     0
  9
$DIMTOLJ
 70
     1
  9
$DIMTZIN
 70
     0
  9
$DIMALTZ
 70
     0
  9
$DIMALTTZ
 70
     0
  9
$DIMFIT
 70
     3
  9
$DIMUPT
 70
     0
  9
$DIMUNIT
 70
     2
  9
$DIMDEC
 70
     4
  9
$DIMTDEC
 70
     4
  9
$DIMALTU
 70
     2
  9
$DIMALTTD
 70
     2
  9
$DIMTXSTY
  7
STANDARD
  9
$DIMAUNIT
 70
     0
  9
$LUNITS
 70
     2
  9
$LUPREC
 70
     4
  9
$SKETCHINC
 40
0.1
  9
$FILLETRAD
 40
0.5
  9
$AUNITS
 70
     0
  9
$AUPREC
 70
     0
  9
$MENU
  1
.
  9
$ELEVATION
 40
0.0
  9
$PELEVATION
 40
0.0
  9
$THICKNESS
 40
0.0
  9
$LIMCHECK
 70
     0
  9
$CHAMFERA
 40
0.5
  9
$CHAMFERB
 40
0.5
  9
$CHAMFERC
 40
1.0
  9
$CHAMFERD
 40
0.0
  9
$SKPOLY
 70
     0
  9
$TDCREATE
 40
2459111.699286007
  9
$TDUPDATE
 40
2459111.699286018
  9
$TDINDWG
 40
0.0000000116
  9
$TDUSRTIMER
 40
0.0000000116
  9
$USRTIMER
 70
     1
  9
$ANGBASE
 50
0.0
  9
$ANGDIR
 70
     0
  9
$PDMODE
 70
     0
  9
$PDSIZE
 40
0.0
  9
$PLINEWID
 40
0.0
  9
$COORDS
 70
     1
  9
$SPLFRAME
 70
     0
  9
$SPLINETYPE
 70
     6
  9
$SPLINESEGS
 70
     8
  9
$ATTDIA
 70
     0
  9
$ATTREQ
 70
     1
  9
$HANDLING
 70
     1
  9
$HANDSEED
  5
3E
  9
$SURFTAB1
 70
     6
  9
$SURFTAB2
 70
     6
  9
$SURFTYPE
 70
     6
  9
$SURFU
 70
     6
  9
$SURFV
 70
     6
  9
$UCSNAME
  2

  9
$UCSORG
 10
0.0
 20
0.0
 30
0.0
  9
$UCSXDIR
 10
1.0
 20
0.0
 30
0.0
  9
$UCSYDIR
 10
0.0
 20
1.0
 30
0.0
  9
$PUCSNAME
  2

  9
$PUCSORG
 10
0.0
 20
0.0
 30
0.0
  9
$PUCSXDIR
 10
1.0
 20
0.0
 30
0.0
  9
$PUCSYDIR
 10
0.0
 20
1.0
 30
0.0
  9
$USERI1
 70
     0
  9
$USERI2
 70
     0
  9
$USERI3
 70
     0
  9
$USERI4
 70
     0
  9
$USERI5
 70
     0
  9
$USERR1
 40
0.0
  9
$USERR2
 40
0.0
  9
$USERR3
 40
0.0
  9
$USERR4
 40
0.0
  9
$USERR5
 40
0.0
  9
$WORLDVIEW
 70
     1
  9
$SHADEDGE
 70
     3
  9
$SHADEDIF
 70
    70
  9
$TILEMODE
 70
     1
  9
$MAXACTVP
 70
    64
  9
$PINSBASE
 10
0.0
 20
0.0
 30
0.0
  9
$PLIMCHECK
 70
     0
  9
$PEXTMIN
 10
1.000000000000000E+20
 20
1.000000000000000E+20
 30
1.000000000000000E+20
  9
$PEXTMAX
 10
-1.000000000000000E+20
 20
-1.000000000000000E+20
 30
-1.000000000000000E+20
  9
$PLIMMIN
 10
0.0
 20
0.0
  9
$PLIMMAX
 10
12.0
 20
9.0
  9
$UNITMODE
 70
     0
  9
$VISRETAIN
 70
     1
  9
$PLINEGEN
 70
     0
  9
$PSLTSCALE
 70
     1
  9
$TREEDEPTH
 70
  3020
  9
$PICKSTYLE
 70
     1
  9
$CMLSTYLE
  2
STANDARD
  9
$CMLJUST
 70
     0
  9
$CMLSCALE
 40
1.0
  9
$SAVEIMAGES
 70
     1
  0
ENDSEC
  0
SECTION
  2
CLASSES
  0
CLASS
  1
ACDBDICTIONARYWDFLT
  2
AcDbDictionaryWithDefault
  3
ObjectDBX Classes
 90
    32768
280
     0
281
     0
  0
CLASS
  1
VISUALSTYLE
  2
AcDbVisualStyle
  3
ObjectDBX Classes
 90
     4095
280
     0
281
     0
  0
CLASS
  1
XRECORD
  2
AcDbXrecord
  3
AutoCAD 2000
 90
    32768
280
     0
281
     0
  0
CLASS
  1
LWPOLYLINE
  2
AcDbPolyline
  3
AutoCAD 2000
 90
    32768
280
     0
281
     1
  0
CLASS
  1
HATCH
  2
AcDbHatch
  3
AutoCAD 2000
 90
    32768
280
     0
281
     1
  0
CLASS
  1
ACDBPLACEHOLDER
  2
AcDbPlaceHolder
  3
ObjectDBX Classes
 90
        0
280
     0
281
     0
  0
CLASS
  1
LAYOUT
  2
AcDbLayout
  3
ObjectDBX Classes
 90
        0
280
     0
281
     0
  0
ENDSEC
  0
SECTION
  2
TABLES
  0
TABLE
  2
VPORT
  5
8
330
0
100
AcDbSymbolTable
 70
     1
  0
VPORT
  5
29
330
8
100
AcDbSymbolTableRecord
100
AcDbViewportTableRecord
  2
*ACTIVE
 70
     0
 10
0.0
 20
0.0
 11
1.0
 21
1.0
 12
0.0
 22
0.0
 13
0.0
 23
0.0
 14
0.5
 24
0.5
 15
0.5
 25
0.5
 16
0.0
 26
0.0
 36
1.0
 17
139.699999965075
 27
107.9499999730125
 37
0.0
 40
215.899999946025
 41
1.294117647058823
 42
50.0
 43
0.0
 44
0.0
 50
0.0
 51
0.0
 71
     0
 72
   100
 73
     1
 74
     3
 75
     0
 76
     0
 77
     0
 78
     0
  0
ENDTAB
  0
TABLE
  2
LTYPE
  5
5
330
0
100
AcDbSymbolTable
 70
     1
  0
LTYPE
  5
14
330
5
100
AcDbSymbolTableRecord
100
AcDbLinetypeTableRecord
  2
BYBLOCK
 70
     0
  3

 72
    65
 73
     0
 40
0.0
  0
LTYPE
  5
15
330
5
100
AcDbSymbolTableRecord
100
AcDbLinetypeTableRecord
  2
BYLAYER
 70
     0
  3

 72
    65
 73
     0
 40
0.0
  0
LTYPE
  5
16
330
5
100
AcDbSymbolTableRecord
100
AcDbLinetypeTableRecord
  2
CONTINUOUS
 70
     0
  3
Solid line
 72
    65
 73
     0
 40
0.0
  0
ENDTAB
  0
TABLE
  2
LAYER
  5
2
330
0
100
AcDbSymbolTable
 70
     2
  0
LAYER
  5
10
330
2
100
AcDbSymbolTableRecord
100
AcDbLayerTableRecord
  2
0
 70
     0
 62
     7
  6
CONTINUOUS
  0
LAYER
  5
3B
330
2
100
AcDbSymbolTableRecord
100
AcDbLayerTableRecord
  2
LAYER_1
 70
     0
 62
     7
  6
CONTINUOUS
  0
ENDTAB
  0
TABLE
  2
STYLE
  5
3
330
0
100
AcDbSymbolTable
 70
     1
  0
STYLE
  5
11
330
3
100
AcDbSymbolTableRecord
100
AcDbTextStyleTableRecord
  2
STANDARD
 70
     0
 40
0.0
 41
1.0
 50
0.0
 71
     0
 42
0.2
  3
txt
  4

  0
ENDTAB
  0
TABLE
  2
VIEW
  5
6
330
0
100
AcDbSymbolTable
 70
     0
  0
ENDTAB
  0
TABLE
  2
UCS
  5
7
330
0
100
AcDbSymbolTable
 70
     0
  0
ENDTAB
  0
TABLE
  2
APPID
  5
9
330
0
100
AcDbSymbolTable
 70
     1
  0
APPID
  5
12
330
9
100
AcDbSymbolTableRecord
100
AcDbRegAppTableRecord
  2
ACAD
 70
     0
  0
ENDTAB
  0
TABLE
  2
DIMSTYLE
  5
A
330
0
100
AcDbSymbolTable
 70
     1
  0
DIMSTYLE
105
27
330
A
100
AcDbSymbolTableRecord
100
AcDbDimStyleTableRecord
  2
STANDARD
 70
     0
  3

  4

  5

  6

  7

 40
1.0
 41
0.18
 42
0.0625
 43
0.38
 44
0.18
 45
0.0
 46
0.0
 47
0.0
 48
0.0
140
0.18
141
0.09
142
0.0
143
25.4
144
1.0
145
0.0
146
1.0
147
0.09
 71
     0
 72
     0
 73
     1
 74
     1
 75
     0
 76
     0
 77
     0
 78
     0
170
     0
171
     2
172
     0
173
     0
174
     0
175
     0
176
     0
177
     0
178
     0
270
     2
271
     4
272
     4
273
     2
274
     2
340
11
275
     0
280
     0
281
     0
282
     0
283
     1
284
     0
285
     0
286
     0
287
     3
288
     0
  0
ENDTAB
  0
TABLE
  2
BLOCK_RECORD
  5
1
330
0
100
AcDbSymbolTable
 70
     1
  0
BLOCK_RECORD
  5
1F
330
1
100
AcDbSymbolTableRecord
100
AcDbBlockTableRecord
  2
*MODEL_SPACE
  0
BLOCK_RECORD
  5
1B
330
1
100
AcDbSymbolTableRecord
100
AcDbBlockTableRecord
  2
*PAPER_SPACE
  0
ENDTAB
  0
ENDSEC
  0
SECTION
  2
BLOCKS
  0
BLOCK
  5
20
330
1F
100
AcDbEntity
  8
0
100
AcDbBlockBegin
  2
*MODEL_SPACE
 70
     0
 71
     0
 10
0.0
 20
0.0
 30
0.0
  3
*MODEL_SPACE
  1

  0
ENDBLK
  5
21
330
1F
100
AcDbEntity
  8
0
100
AcDbBlockEnd
  0
BLOCK
  5
1C
330
1B
100
AcDbEntity
 67
     1
  8
0
100
AcDbBlockBegin
  2
*PAPER_SPACE
 70
     0
 71
     0
 10
0.0
 20
0.0
 30
0.0
  3
*PAPER_SPACE
  1

  0
ENDBLK
  5
1D
330
1B
100
AcDbEntity
 67
     1
  8
0
100
AcDbBlockEnd
  0
ENDSEC
  0
SECTION
  2
ENTITIES
  0
SPLINE
  5
3C
330
1F
100
AcDbEntity
  8
LAYER_1
100
AcDbSpline
210
0.0
220
0.0
230
1.0
 70
    11
 71
     3
 72
  1445
 73
  1441
 74
     0
 42
0.0000000001
 43
0.0000000001
 40
0.0
 40
0.0
 40
0.0
 40
0.0
 40
1.0
 40
1.0
 40
1.0
 40
2.0
 40
2.0
 40
2.0
 40
3.0
 40
3.0
 40
3.0
 40
4.0
 40
4.0
 40
4.0
 40
5.0
 40
5.0
 40
5.0
 40
6.0
 40
6.0
 40
6.0
 40
7.0
 40
7.0
 40
7.0
 40
8.0
 40
8.0
 40
8.0
 40
9.0
 40
9.0
 40
9.0
 40
10.0
 40
10.0
 40
10.0
 40
11.0
 40
11.0
 40
11.0
 40
12.0
 40
12.0
 40
12.0
 40
13.0
 40
13.0
 40
13.0
 40
14.0
 40
14.0
 40
14.0
 40
15.0
 40
15.0
 40
15.0
 40
16.0
 40
16.0
 40
16.0
 40
17.0
 40
17.0
 40
17.0
 40
18.0
 40
18.0
 40
18.0
 40
19.0
 40
19.0
 40
19.0
 40
20.0
 40
20.0
 40
20.0
 40
21.0
 40
21.0
 40
21.0
 40
22.0
 40
22.0
 40
22.0
 40
23.0
 40
23.0
 40
23.0
 40
24.0
 40
24.0
 40
24.0
 40
25.0
 40
25.0
 40
25.0
 40
26.0
 40
26.0
 40
26.0
 40
27.0
 40
27.0
 40
27.0
 40
28.0
 40
28.0
 40
28.0
 40
29.0
 40
29.0
 40
29.0
 40
30.0
 40
30.0
 40
30.0
 40
31.0
 40
31.0
 40
31.0
 40
32.0
 40
32.0
 40
32.0
 40
33.0
 40
33.0
 40
33.0
 40
34.0
 40
34.0
 40
34.0
 40
35.0
 40
35.0
 40
35.0
 40
36.0
 40
36.0
 40
36.0
 40
37.0
 40
37.0
 40
37.0
 40
38.0
 40
38.0
 40
38.0
 40
39.0
 40
39.0
 40
39.0
 40
40.0
 40
40.0
 40
40.0
 40
41.0
 40
41.0
 40
41.0
 40
42.0
 40
42.0
 40
42.0
 40
43.0
 40
43.0
 40
43.0
 40
44.0
 40
44.0
 40
44.0
 40
45.0
 40
45.0
 40
45.0
 40
46.0
 40
46.0
 40
46.0
 40
47.0
 40
47.0
 40
47.0
 40
48.0
 40
48.0
 40
48.0
 40
49.0
 40
49.0
 40
49.0
 40
50.0
 40
50.0
 40
50.0
 40
51.0
 40
51.0
 40
51.0
 40
52.0
 40
52.0
 40
52.0
 40
53.0
 40
53.0
 40
53.0
 40
54.0
 40
54.0
 40
54.0
 40
55.0
 40
55.0
 40
55.0
 40
56.0
 40
56.0
 40
56.0
 40
57.0
 40
57.0
 40
57.0
 40
58.0
 40
58.0
 40
58.0
 40
59.0
 40
59.0
 40
59.0
 40
60.0
 40
60.0
 40
60.0
 40
61.0
 40
61.0
 40
61.0
 40
62.0
 40
62.0
 40
62.0
 40
63.0
 40
63.0
 40
63.0
 40
64.0
 40
64.0
 40
64.0
 40
65.0
 40
65.0
 40
65.0
 40
66.0
 40
66.0
 40
66.0
 40
67.0
 40
67.0
 40
67.0
 40
68.0
 40
68.0
 40
68.0
 40
69.0
 40
69.0
 40
69.0
 40
70.0
 40
70.0
 40
70.0
 40
71.0
 40
71.0
 40
71.0
 40
72.0
 40
72.0
 40
72.0
 40
73.0
 40
73.0
 40
73.0
 40
74.0
 40
74.0
 40
74.0
 40
75.0
 40
75.0
 40
75.0
 40
76.0
 40
76.0
 40
76.0
 40
77.0
 40
77.0
 40
77.0
 40
78.0
 40
78.0
 40
78.0
 40
79.0
 40
79.0
 40
79.0
 40
80.0
 40
80.0
 40
80.0
 40
81.0
 40
81.0
 40
81.0
 40
82.0
 40
82.0
 40
82.0
 40
83.0
 40
83.0
 40
83.0
 40
84.0
 40
84.0
 40
84.0
 40
85.0
 40
85.0
 40
85.0
 40
86.0
 40
86.0
 40
86.0
 40
87.0
 40
87.0
 40
87.0
 40
88.0
 40
88.0
 40
88.0
 40
89.0
 40
89.0
 40
89.0
 40
90.0
 40
90.0
 40
90.0
 40
91.0
 40
91.0
 40
91.0
 40
92.0
 40
92.0
 40
92.0
 40
93.0
 40
93.0
 40
93.0
 40
94.0
 40
94.0
 40
94.0
 40
95.0
 40
95.0
 40
95.0
 40
96.0
 40
96.0
 40
96.0
 40
97.0
 40
97.0
 40
97.0
 40
98.0
 40
98.0
 40
98.0
 40
99.0
 40
99.0
 40
99.0
 40
100.0
 40
100.0
 40
100.0
 40
101.0
 40
101.0
 40
101.0
 40
102.0
 40
102.0
 40
102.0
 40
103.0
 40
103.0
 40
103.0
 40
104.0
 40
104.0
 40
104.0
 40
105.0
 40
105.0
 40
105.0
 40
106.0
 40
106.0
 40
106.0
 40
107.0
 40
107.0
 40
107.0
 40
108.0
 40
108.0
 40
108.0
 40
109.0
 40
109.0
 40
109.0
 40
110.0
 40
110.0
 40
110.0
 40
111.0
 40
111.0
 40
111.0
 40
112.0
 40
112.0
 40
112.0
 40
113.0
 40
113.0
 40
113.0
 40
114.0
 40
114.0
 40
114.0
 40
115.0
 40
115.0
 40
115.0
 40
116.0
 40
116.0
 40
116.0
 40
117.0
 40
117.0
 40
117.0
 40
118.0
 40
118.0
 40
118.0
 40
119.0
 40
119.0
 40
119.0
 40
120.0
 40
120.0
 40
120.0
 40
121.0
 40
121.0
 40
121.0
 40
122.0
 40
122.0
 40
122.0
 40
123.0
 40
123.0
 40
123.0
 40
124.0
 40
124.0
 40
124.0
 40
125.0
 40
125.0
 40
125.0
 40
126.0
 40
126.0
 40
126.0
 40
127.0
 40
127.0
 40
127.0
 40
128.0
 40
128.0
 40
128.0
 40
129.0
 40
129.0
 40
129.0
 40
130.0
 40
130.0
 40
130.0
 40
131.0
 40
131.0
 40
131.0
 40
132.0
 40
132.0
 40
132.0
 40
133.0
 40
133.0
 40
133.0
 40
134.0
 40
134.0
 40
134.0
 40
135.0
 40
135.0
 40
135.0
 40
136.0
 40
136.0
 40
136.0
 40
137.0
 40
137.0
 40
137.0
 40
138.0
 40
138.0
 40
138.0
 40
139.0
 40
139.0
 40
139.0
 40
140.0
 40
140.0
 40
140.0
 40
141.0
 40
141.0
 40
141.0
 40
142.0
 40
142.0
 40
142.0
 40
143.0
 40
143.0
 40
143.0
 40
144.0
 40
144.0
 40
144.0
 40
145.0
 40
145.0
 40
145.0
 40
146.0
 40
146.0
 40
146.0
 40
147.0
 40
147.0
 40
147.0
 40
148.0
 40
148.0
 40
148.0
 40
149.0
 40
149.0
 40
149.0
 40
150.0
 40
150.0
 40
150.0
 40
151.0
 40
151.0
 40
151.0
 40
152.0
 40
152.0
 40
152.0
 40
153.0
 40
153.0
 40
153.0
 40
154.0
 40
154.0
 40
154.0
 40
155.0
 40
155.0
 40
155.0
 40
156.0
 40
156.0
 40
156.0
 40
157.0
 40
157.0
 40
157.0
 40
158.0
 40
158.0
 40
158.0
 40
159.0
 40
159.0
 40
159.0
 40
160.0
 40
160.0
 40
160.0
 40
161.0
 40
161.0
 40
161.0
 40
162.0
 40
162.0
 40
162.0
 40
163.0
 40
163.0
 40
163.0
 40
164.0
 40
164.0
 40
164.0
 40
165.0
 40
165.0
 40
165.0
 40
166.0
 40
166.0
 40
166.0
 40
167.0
 40
167.0
 40
167.0
 40
168.0
 40
168.0
 40
168.0
 40
169.0
 40
169.0
 40
169.0
 40
170.0
 40
170.0
 40
170.0
 40
171.0
 40
171.0
 40
171.0
 40
172.0
 40
172.0
 40
172.0
 40
173.0
 40
173.0
 40
173.0
 40
174.0
 40
174.0
 40
174.0
 40
175.0
 40
175.0
 40
175.0
 40
176.0
 40
176.0
 40
176.0
 40
177.0
 40
177.0
 40
177.0
 40
178.0
 40
178.0
 40
178.0
 40
179.0
 40
179.0
 40
179.0
 40
180.0
 40
180.0
 40
180.0
 40
181.0
 40
181.0
 40
181.0
 40
182.0
 40
182.0
 40
182.0
 40
183.0
 40
183.0
 40
183.0
 40
184.0
 40
184.0
 40
184.0
 40
185.0
 40
185.0
 40
185.0
 40
186.0
 40
186.0
 40
186.0
 40
187.0
 40
187.0
 40
187.0
 40
188.0
 40
188.0
 40
188.0
 40
189.0
 40
189.0
 40
189.0
 40
190.0
 40
190.0
 40
190.0
 40
191.0
 40
191.0
 40
191.0
 40
192.0
 40
192.0
 40
192.0
 40
193.0
 40
193.0
 40
193.0
 40
194.0
 40
194.0
 40
194.0
 40
195.0
 40
195.0
 40
195.0
 40
196.0
 40
196.0
 40
196.0
 40
197.0
 40
197.0
 40
197.0
 40
198.0
 40
198.0
 40
198.0
 40
199.0
 40
199.0
 40
199.0
 40
200.0
 40
200.0
 40
200.0
 40
201.0
 40
201.0
 40
201.0
 40
202.0
 40
202.0
 40
202.0
 40
203.0
 40
203.0
 40
203.0
 40
204.0
 40
204.0
 40
204.0
 40
205.0
 40
205.0
 40
205.0
 40
206.0
 40
206.0
 40
206.0
 40
207.0
 40
207.0
 40
207.0
 40
208.0
 40
208.0
 40
208.0
 40
209.0
 40
209.0
 40
209.0
 40
210.0
 40
210.0
 40
210.0
 40
211.0
 40
211.0
 40
211.0
 40
212.0
 40
212.0
 40
212.0
 40
213.0
 40
213.0
 40
213.0
 40
214.0
 40
214.0
 40
214.0
 40
215.0
 40
215.0
 40
215.0
 40
216.0
 40
216.0
 40
216.0
 40
217.0
 40
217.0
 40
217.0
 40
218.0
 40
218.0
 40
218.0
 40
219.0
 40
219.0
 40
219.0
 40
220.0
 40
220.0
 40
220.0
 40
221.0
 40
221.0
 40
221.0
 40
222.0
 40
222.0
 40
222.0
 40
223.0
 40
223.0
 40
223.0
 40
224.0
 40
224.0
 40
224.0
 40
225.0
 40
225.0
 40
225.0
 40
226.0
 40
226.0
 40
226.0
 40
227.0
 40
227.0
 40
227.0
 40
228.0
 40
228.0
 40
228.0
 40
229.0
 40
229.0
 40
229.0
 40
230.0
 40
230.0
 40
230.0
 40
231.0
 40
231.0
 40
231.0
 40
232.0
 40
232.0
 40
232.0
 40
233.0
 40
233.0
 40
233.0
 40
234.0
 40
234.0
 40
234.0
 40
235.0
 40
235.0
 40
235.0
 40
236.0
 40
236.0
 40
236.0
 40
237.0
 40
237.0
 40
237.0
 40
238.0
 40
238.0
 40
238.0
 40
239.0
 40
239.0
 40
239.0
 40
240.0
 40
240.0
 40
240.0
 40
241.0
 40
241.0
 40
241.0
 40
242.0
 40
242.0
 40
242.0
 40
243.0
 40
243.0
 40
243.0
 40
244.0
 40
244.0
 40
244.0
 40
245.0
 40
245.0
 40
245.0
 40
246.0
 40
246.0
 40
246.0
 40
247.0
 40
247.0
 40
247.0
 40
248.0
 40
248.0
 40
248.0
 40
249.0
 40
249.0
 40
249.0
 40
250.0
 40
250.0
 40
250.0
 40
251.0
 40
251.0
 40
251.0
 40
252.0
 40
252.0
 40
252.0
 40
253.0
 40
253.0
 40
253.0
 40
254.0
 40
254.0
 40
254.0
 40
255.0
 40
255.0
 40
255.0
 40
256.0
 40
256.0
 40
256.0
 40
257.0
 40
257.0
 40
257.0
 40
258.0
 40
258.0
 40
258.0
 40
259.0
 40
259.0
 40
259.0
 40
260.0
 40
260.0
 40
260.0
 40
261.0
 40
261.0
 40
261.0
 40
262.0
 40
262.0
 40
262.0
 40
263.0
 40
263.0
 40
263.0
 40
264.0
 40
264.0
 40
264.0
 40
265.0
 40
265.0
 40
265.0
 40
266.0
 40
266.0
 40
266.0
 40
267.0
 40
267.0
 40
267.0
 40
268.0
 40
268.0
 40
268.0
 40
269.0
 40
269.0
 40
269.0
 40
270.0
 40
270.0
 40
270.0
 40
271.0
 40
271.0
 40
271.0
 40
272.0
 40
272.0
 40
272.0
 40
273.0
 40
273.0
 40
273.0
 40
274.0
 40
274.0
 40
274.0
 40
275.0
 40
275.0
 40
275.0
 40
276.0
 40
276.0
 40
276.0
 40
277.0
 40
277.0
 40
277.0
 40
278.0
 40
278.0
 40
278.0
 40
279.0
 40
279.0
 40
279.0
 40
280.0
 40
280.0
 40
280.0
 40
281.0
 40
281.0
 40
281.0
 40
282.0
 40
282.0
 40
282.0
 40
283.0
 40
283.0
 40
283.0
 40
284.0
 40
284.0
 40
284.0
 40
285.0
 40
285.0
 40
285.0
 40
286.0
 40
286.0
 40
286.0
 40
287.0
 40
287.0
 40
287.0
 40
288.0
 40
288.0
 40
288.0
 40
289.0
 40
289.0
 40
289.0
 40
290.0
 40
290.0
 40
290.0
 40
291.0
 40
291.0
 40
291.0
 40
292.0
 40
292.0
 40
292.0
 40
293.0
 40
293.0
 40
293.0
 40
294.0
 40
294.0
 40
294.0
 40
295.0
 40
295.0
 40
295.0
 40
296.0
 40
296.0
 40
296.0
 40
297.0
 40
297.0
 40
297.0
 40
298.0
 40
298.0
 40
298.0
 40
299.0
 40
299.0
 40
299.0
 40
300.0
 40
300.0
 40
300.0
 40
301.0
 40
301.0
 40
301.0
 40
302.0
 40
302.0
 40
302.0
 40
303.0
 40
303.0
 40
303.0
 40
304.0
 40
304.0
 40
304.0
 40
305.0
 40
305.0
 40
305.0
 40
306.0
 40
306.0
 40
306.0
 40
307.0
 40
307.0
 40
307.0
 40
308.0
 40
308.0
 40
308.0
 40
309.0
 40
309.0
 40
309.0
 40
310.0
 40
310.0
 40
310.0
 40
311.0
 40
311.0
 40
311.0
 40
312.0
 40
312.0
 40
312.0
 40
313.0
 40
313.0
 40
313.0
 40
314.0
 40
314.0
 40
314.0
 40
315.0
 40
315.0
 40
315.0
 40
316.0
 40
316.0
 40
316.0
 40
317.0
 40
317.0
 40
317.0
 40
318.0
 40
318.0
 40
318.0
 40
319.0
 40
319.0
 40
319.0
 40
320.0
 40
320.0
 40
320.0
 40
321.0
 40
321.0
 40
321.0
 40
322.0
 40
322.0
 40
322.0
 40
323.0
 40
323.0
 40
323.0
 40
324.0
 40
324.0
 40
324.0
 40
325.0
 40
325.0
 40
325.0
 40
326.0
 40
326.0
 40
326.0
 40
327.0
 40
327.0
 40
327.0
 40
328.0
 40
328.0
 40
328.0
 40
329.0
 40
329.0
 40
329.0
 40
330.0
 40
330.0
 40
330.0
 40
331.0
 40
331.0
 40
331.0
 40
332.0
 40
332.0
 40
332.0
 40
333.0
 40
333.0
 40
333.0
 40
334.0
 40
334.0
 40
334.0
 40
335.0
 40
335.0
 40
335.0
 40
336.0
 40
336.0
 40
336.0
 40
337.0
 40
337.0
 40
337.0
 40
338.0
 40
338.0
 40
338.0
 40
339.0
 40
339.0
 40
339.0
 40
340.0
 40
340.0
 40
340.0
 40
341.0
 40
341.0
 40
341.0
 40
342.0
 40
342.0
 40
342.0
 40
343.0
 40
343.0
 40
343.0
 40
344.0
 40
344.0
 40
344.0
 40
345.0
 40
345.0
 40
345.0
 40
346.0
 40
346.0
 40
346.0
 40
347.0
 40
347.0
 40
347.0
 40
348.0
 40
348.0
 40
348.0
 40
349.0
 40
349.0
 40
349.0
 40
350.0
 40
350.0
 40
350.0
 40
351.0
 40
351.0
 40
351.0
 40
352.0
 40
352.0
 40
352.0
 40
353.0
 40
353.0
 40
353.0
 40
354.0
 40
354.0
 40
354.0
 40
355.0
 40
355.0
 40
355.0
 40
356.0
 40
356.0
 40
356.0
 40
357.0
 40
357.0
 40
357.0
 40
358.0
 40
358.0
 40
358.0
 40
359.0
 40
359.0
 40
359.0
 40
360.0
 40
360.0
 40
360.0
 40
361.0
 40
361.0
 40
361.0
 40
362.0
 40
362.0
 40
362.0
 40
363.0
 40
363.0
 40
363.0
 40
364.0
 40
364.0
 40
364.0
 40
365.0
 40
365.0
 40
365.0
 40
366.0
 40
366.0
 40
366.0
 40
367.0
 40
367.0
 40
367.0
 40
368.0
 40
368.0
 40
368.0
 40
369.0
 40
369.0
 40
369.0
 40
370.0
 40
370.0
 40
370.0
 40
371.0
 40
371.0
 40
371.0
 40
372.0
 40
372.0
 40
372.0
 40
373.0
 40
373.0
 40
373.0
 40
374.0
 40
374.0
 40
374.0
 40
375.0
 40
375.0
 40
375.0
 40
376.0
 40
376.0
 40
376.0
 40
377.0
 40
377.0
 40
377.0
 40
378.0
 40
378.0
 40
378.0
 40
379.0
 40
379.0
 40
379.0
 40
380.0
 40
380.0
 40
380.0
 40
381.0
 40
381.0
 40
381.0
 40
382.0
 40
382.0
 40
382.0
 40
383.0
 40
383.0
 40
383.0
 40
384.0
 40
384.0
 40
384.0
 40
385.0
 40
385.0
 40
385.0
 40
386.0
 40
386.0
 40
386.0
 40
387.0
 40
387.0
 40
387.0
 40
388.0
 40
388.0
 40
388.0
 40
389.0
 40
389.0
 40
389.0
 40
390.0
 40
390.0
 40
390.0
 40
391.0
 40
391.0
 40
391.0
 40
392.0
 40
392.0
 40
392.0
 40
393.0
 40
393.0
 40
393.0
 40
394.0
 40
394.0
 40
394.0
 40
395.0
 40
395.0
 40
395.0
 40
396.0
 40
396.0
 40
396.0
 40
397.0
 40
397.0
 40
397.0
 40
398.0
 40
398.0
 40
398.0
 40
399.0
 40
399.0
 40
399.0
 40
400.0
 40
400.0
 40
400.0
 40
401.0
 40
401.0
 40
401.0
 40
402.0
 40
402.0
 40
402.0
 40
403.0
 40
403.0
 40
403.0
 40
404.0
 40
404.0
 40
404.0
 40
405.0
 40
405.0
 40
405.0
 40
406.0
 40
406.0
 40
406.0
 40
407.0
 40
407.0
 40
407.0
 40
408.0
 40
408.0
 40
408.0
 40
409.0
 40
409.0
 40
409.0
 40
410.0
 40
410.0
 40
410.0
 40
411.0
 40
411.0
 40
411.0
 40
412.0
 40
412.0
 40
412.0
 40
413.0
 40
413.0
 40
413.0
 40
414.0
 40
414.0
 40
414.0
 40
415.0
 40
415.0
 40
415.0
 40
416.0
 40
416.0
 40
416.0
 40
417.0
 40
417.0
 40
417.0
 40
418.0
 40
418.0
 40
418.0
 40
419.0
 40
419.0
 40
419.0
 40
420.0
 40
420.0
 40
420.0
 40
421.0
 40
421.0
 40
421.0
 40
422.0
 40
422.0
 40
422.0
 40
423.0
 40
423.0
 40
423.0
 40
424.0
 40
424.0
 40
424.0
 40
425.0
 40
425.0
 40
425.0
 40
426.0
 40
426.0
 40
426.0
 40
427.0
 40
427.0
 40
427.0
 40
428.0
 40
428.0
 40
428.0
 40
429.0
 40
429.0
 40
429.0
 40
430.0
 40
430.0
 40
430.0
 40
431.0
 40
431.0
 40
431.0
 40
432.0
 40
432.0
 40
432.0
 40
433.0
 40
433.0
 40
433.0
 40
434.0
 40
434.0
 40
434.0
 40
435.0
 40
435.0
 40
435.0
 40
436.0
 40
436.0
 40
436.0
 40
437.0
 40
437.0
 40
437.0
 40
438.0
 40
438.0
 40
438.0
 40
439.0
 40
439.0
 40
439.0
 40
440.0
 40
440.0
 40
440.0
 40
441.0
 40
441.0
 40
441.0
 40
442.0
 40
442.0
 40
442.0
 40
443.0
 40
443.0
 40
443.0
 40
444.0
 40
444.0
 40
444.0
 40
445.0
 40
445.0
 40
445.0
 40
446.0
 40
446.0
 40
446.0
 40
447.0
 40
447.0
 40
447.0
 40
448.0
 40
448.0
 40
448.0
 40
449.0
 40
449.0
 40
449.0
 40
450.0
 40
450.0
 40
450.0
 40
451.0
 40
451.0
 40
451.0
 40
452.0
 40
452.0
 40
452.0
 40
453.0
 40
453.0
 40
453.0
 40
454.0
 40
454.0
 40
454.0
 40
455.0
 40
455.0
 40
455.0
 40
456.0
 40
456.0
 40
456.0
 40
457.0
 40
457.0
 40
457.0
 40
458.0
 40
458.0
 40
458.0
 40
459.0
 40
459.0
 40
459.0
 40
460.0
 40
460.0
 40
460.0
 40
461.0
 40
461.0
 40
461.0
 40
462.0
 40
462.0
 40
462.0
 40
463.0
 40
463.0
 40
463.0
 40
464.0
 40
464.0
 40
464.0
 40
465.0
 40
465.0
 40
465.0
 40
466.0
 40
466.0
 40
466.0
 40
467.0
 40
467.0
 40
467.0
 40
468.0
 40
468.0
 40
468.0
 40
469.0
 40
469.0
 40
469.0
 40
470.0
 40
470.0
 40
470.0
 40
471.0
 40
471.0
 40
471.0
 40
472.0
 40
472.0
 40
472.0
 40
473.0
 40
473.0
 40
473.0
 40
474.0
 40
474.0
 40
474.0
 40
475.0
 40
475.0
 40
475.0
 40
476.0
 40
476.0
 40
476.0
 40
477.0
 40
477.0
 40
477.0
 40
478.0
 40
478.0
 40
478.0
 40
479.0
 40
479.0
 40
479.0
 40
480.0
 40
480.0
 40
480.0
 40
480.0
 10
3.54689805683897
 20
99.99958086692719
 30
0.0
 10
3.54689805683897
 20
99.99958086692719
 30
0.0
 10
3.54689805683897
 20
99.01342228427443
 30
0.0
 10
3.54689805683897
 20
99.01342228427443
 30
0.0
 10
3.54689805683897
 20
99.01342228427443
 30
0.0
 10
3.54689805683897
 20
98.02743595639592
 30
0.0
 10
3.54689805683897
 20
98.02743595639592
 30
0.0
 10
3.54689805683897
 20
98.02743595639592
 30
0.0
 10
3.54689805683897
 20
97.04144962851743
 30
0.0
 10
3.54689805683897
 20
97.04144962851743
 30
0.0
 10
3.54689805683897
 20
97.04144962851743
 30
0.0
 10
3.54689805683897
 20
96.05529104586465
 30
0.0
 10
3.54689805683897
 20
96.05529104586465
 30
0.0
 10
3.54689805683897
 20
96.05529104586465
 30
0.0
 10
3.54689805683897
 20
95.06913246321189
 30
0.0
 10
3.54689805683897
 20
95.06913246321189
 30
0.0
 10
3.54689805683897
 20
95.06913246321189
 30
0.0
 10
3.54689805683897
 20
94.08314613533338
 30
0.0
 10
3.54689805683897
 20
94.08314613533338
 30
0.0
 10
3.54689805683897
 20
94.08314613533338
 30
0.0
 10
3.54689805683897
 20
93.09715980745489
 30
0.0
 10
3.54689805683897
 20
93.09715980745489
 30
0.0
 10
3.54689805683897
 20
93.09715980745489
 30
0.0
 10
3.54689805683897
 20
92.11100122480211
 30
0.0
 10
3.54689805683897
 20
92.11100122480211
 30
0.0
 10
3.54689805683897
 20
92.11100122480211
 30
0.0
 10
3.537079534706008
 20
91.96958005513261
 30
0.0
 10
3.537079534706008
 20
91.96958005513261
 30
0.0
 10
3.537079534706008
 20
91.96958005513261
 30
0.0
 10
3.527433267347309
 20
91.82833114023737
 30
0.0
 10
3.527433267347309
 20
91.82833114023737
 30
0.0
 10
3.527433267347309
 20
91.82833114023737
 30
0.0
 10
3.517614745214347
 20
91.68690997056785
 30
0.0
 10
3.517614745214347
 20
91.68690997056785
 30
0.0
 10
3.517614745214347
 20
91.68690997056785
 30
0.0
 10
3.507796223081384
 20
91.54548880089835
 30
0.0
 10
3.507796223081384
 20
91.54548880089835
 30
0.0
 10
3.507796223081384
 20
91.54548880089835
 30
0.0
 10
3.498149955722685
 20
91.40406763122886
 30
0.0
 10
3.498149955722685
 20
91.40406763122886
 30
0.0
 10
3.498149955722685
 20
91.40406763122886
 30
0.0
 10
3.488331433589723
 20
91.26264646155934
 30
0.0
 10
3.488331433589723
 20
91.26264646155934
 30
0.0
 10
3.488331433589723
 20
91.26264646155934
 30
0.0
 10
3.478512911456761
 20
91.12122529188984
 30
0.0
 10
3.478512911456761
 20
91.12122529188984
 30
0.0
 10
3.478512911456761
 20
91.12122529188984
 30
0.0
 10
3.468866644098061
 20
90.97980412222033
 30
0.0
 10
3.468866644098061
 20
90.97980412222033
 30
0.0
 10
3.468866644098061
 20
90.97980412222033
 30
0.0
 10
3.4328653962772
 20
90.82942570428918
 30
0.0
 10
3.4328653962772
 20
90.82942570428918
 30
0.0
 10
3.4328653962772
 20
90.82942570428918
 30
0.0
 10
3.39686414845634
 20
90.67904728635801
 30
0.0
 10
3.39686414845634
 20
90.67904728635801
 30
0.0
 10
3.39686414845634
 20
90.67904728635801
 30
0.0
 10
3.360862900635479
 20
90.52866886842686
 30
0.0
 10
3.360862900635479
 20
90.52866886842686
 30
0.0
 10
3.360862900635479
 20
90.52866886842686
 30
0.0
 10
3.324861652814618
 20
90.37829045049571
 30
0.0
 10
3.324861652814618
 20
90.37829045049571
 30
0.0
 10
3.324861652814618
 20
90.37829045049571
 30
0.0
 10
3.288860404993757
 20
90.22791203256456
 30
0.0
 10
3.288860404993757
 20
90.22791203256456
 30
0.0
 10
3.288860404993757
 20
90.22791203256456
 30
0.0
 10
3.252859157172896
 20
90.0775336146334
 30
0.0
 10
3.252859157172896
 20
90.0775336146334
 30
0.0
 10
3.252859157172896
 20
90.0775336146334
 30
0.0
 10
3.217030164126298
 20
89.92715519670224
 30
0.0
 10
3.217030164126298
 20
89.92715519670224
 30
0.0
 10
3.217030164126298
 20
89.92715519670224
 30
0.0
 10
3.181028916305437
 20
89.7767767787711
 30
0.0
 10
3.181028916305437
 20
89.7767767787711
 30
0.0
 10
3.181028916305437
 20
89.7767767787711
 30
0.0
 10
3.127802191058327
 20
89.63552786387585
 30
0.0
 10
3.127802191058327
 20
89.63552786387585
 30
0.0
 10
3.127802191058327
 20
89.63552786387585
 30
0.0
 10
3.074403211036955
 20
89.49427894898061
 30
0.0
 10
3.074403211036955
 20
89.49427894898061
 30
0.0
 10
3.074403211036955
 20
89.49427894898061
 30
0.0
 10
3.021176485789845
 20
89.35303003408536
 30
0.0
 10
3.021176485789845
 20
89.35303003408536
 30
0.0
 10
3.021176485789845
 20
89.35303003408536
 30
0.0
 10
2.967949760542735
 20
89.21160886441585
 30
0.0
 10
2.967949760542735
 20
89.21160886441585
 30
0.0
 10
2.967949760542735
 20
89.21160886441585
 30
0.0
 10
2.914723035295625
 20
89.07018769474635
 30
0.0
 10
2.914723035295625
 20
89.07018769474635
 30
0.0
 10
2.914723035295625
 20
89.07018769474635
 30
0.0
 10
2.861496310048515
 20
88.92893877985111
 30
0.0
 10
2.861496310048515
 20
88.92893877985111
 30
0.0
 10
2.861496310048515
 20
88.92893877985111
 30
0.0
 10
2.808269584801405
 20
88.78768986495587
 30
0.0
 10
2.808269584801405
 20
88.78768986495587
 30
0.0
 10
2.808269584801405
 20
88.78768986495587
 30
0.0
 10
2.755042859554295
 20
88.64644095006062
 30
0.0
 10
2.755042859554295
 20
88.64644095006062
 30
0.0
 10
2.755042859554295
 20
88.64644095006062
 30
0.0
 10
2.692858886045535
 20
88.52241751259162
 30
0.0
 10
2.692858886045535
 20
88.52241751259162
 30
0.0
 10
2.692858886045535
 20
88.52241751259162
 30
0.0
 10
2.630674912536776
 20
88.3985663298969
 30
0.0
 10
2.630674912536776
 20
88.3985663298969
 30
0.0
 10
2.630674912536776
 20
88.3985663298969
 30
0.0
 10
2.568318684253754
 20
88.27471514720216
 30
0.0
 10
2.568318684253754
 20
88.27471514720216
 30
0.0
 10
2.568318684253754
 20
88.27471514720216
 30
0.0
 10
2.506134710744994
 20
88.15069170973317
 30
0.0
 10
2.506134710744994
 20
88.15069170973317
 30
0.0
 10
2.506134710744994
 20
88.15069170973317
 30
0.0
 10
2.443950737236235
 20
88.02684052703843
 30
0.0
 10
2.443950737236235
 20
88.02684052703843
 30
0.0
 10
2.443950737236235
 20
88.02684052703843
 30
0.0
 10
2.381594508953213
 20
87.9029893443437
 30
0.0
 10
2.381594508953213
 20
87.9029893443437
 30
0.0
 10
2.381594508953213
 20
87.9029893443437
 30
0.0
 10
2.319410535444453
 20
87.7789659068747
 30
0.0
 10
2.319410535444453
 20
87.7789659068747
 30
0.0
 10
2.319410535444453
 20
87.7789659068747
 30
0.0
 10
2.257226561935693
 20
87.65511472417998
 30
0.0
 10
2.257226561935693
 20
87.65511472417998
 30
0.0
 10
2.257226561935693
 20
87.65511472417998
 30
0.0
 10
2.159902614477386
 20
87.5402207897469
 30
0.0
 10
2.159902614477386
 20
87.5402207897469
 30
0.0
 10
2.159902614477386
 20
87.5402207897469
 30
0.0
 10
2.062578667019078
 20
87.42515460053954
 30
0.0
 10
2.062578667019078
 20
87.42515460053954
 30
0.0
 10
2.062578667019078
 20
87.42515460053954
 30
0.0
 10
1.965082464786507
 20
87.31026066610647
 30
0.0
 10
1.965082464786507
 20
87.31026066610647
 30
0.0
 10
1.965082464786507
 20
87.31026066610647
 30
0.0
 10
1.867758517328199
 20
87.19536673167339
 30
0.0
 10
1.867758517328199
 20
87.19536673167339
 30
0.0
 10
1.867758517328199
 20
87.19536673167339
 30
0.0
 10
1.770434569869891
 20
87.0804727972403
 30
0.0
 10
1.770434569869891
 20
87.0804727972403
 30
0.0
 10
1.770434569869891
 20
87.0804727972403
 30
0.0
 10
1.672938367637321
 20
86.96557886280722
 30
0.0
 10
1.672938367637321
 20
86.96557886280722
 30
0.0
 10
1.672938367637321
 20
86.96557886280722
 30
0.0
 10
1.575614420179013
 20
86.85051267359988
 30
0.0
 10
1.575614420179013
 20
86.85051267359988
 30
0.0
 10
1.575614420179013
 20
86.85051267359988
 30
0.0
 10
1.478290472720705
 20
86.7356187391668
 30
0.0
 10
1.478290472720705
 20
86.7356187391668
 30
0.0
 10
1.478290472720705
 20
86.7356187391668
 30
0.0
 10
1.371837022226485
 20
86.62968205299536
 30
0.0
 10
1.371837022226485
 20
86.62968205299536
 30
0.0
 10
1.371837022226485
 20
86.62968205299536
 30
0.0
 10
1.265555826506528
 20
86.52357311204966
 30
0.0
 10
1.265555826506528
 20
86.52357311204966
 30
0.0
 10
1.265555826506528
 20
86.52357311204966
 30
0.0
 10
1.15927463078657
 20
86.41746417110397
 30
0.0
 10
1.15927463078657
 20
86.41746417110397
 30
0.0
 10
1.15927463078657
 20
86.41746417110397
 30
0.0
 10
1.05282118029235
 20
86.31135523015827
 30
0.0
 10
1.05282118029235
 20
86.31135523015827
 30
0.0
 10
1.05282118029235
 20
86.31135523015827
 30
0.0
 10
0.9463677297981303
 20
86.20524628921258
 30
0.0
 10
0.9463677297981303
 20
86.20524628921258
 30
0.0
 10
0.9463677297981303
 20
86.20524628921258
 30
0.0
 10
0.8399142793039104
 20
86.09930960304115
 30
0.0
 10
0.8399142793039104
 20
86.09930960304115
 30
0.0
 10
0.8399142793039104
 20
86.09930960304115
 30
0.0
 10
0.7334608288096904
 20
85.99337291686972
 30
0.0
 10
0.7334608288096904
 20
85.99337291686972
 30
0.0
 10
0.7334608288096904
 20
85.99337291686972
 30
0.0
 10
0.6271796330897329
 20
85.88726397592401
 30
0.0
 10
0.6271796330897329
 20
85.88726397592401
 30
0.0
 10
0.6271796330897329
 20
85.88726397592401
 30
0.0
 10
0.5488037108002991
 20
85.82111814260722
 30
0.0
 10
0.5488037108002991
 20
85.82111814260722
 30
0.0
 10
0.5488037108002991
 20
85.82111814260722
 30
0.0
 10
0.4706000432851278
 20
85.75497230929042
 30
0.0
 10
0.4706000432851278
 20
85.75497230929042
 30
0.0
 10
0.4706000432851278
 20
85.75497230929042
 30
0.0
 10
0.3923963757699565
 20
85.68882647597363
 30
0.0
 10
0.3923963757699565
 20
85.68882647597363
 30
0.0
 10
0.3923963757699565
 20
85.68882647597363
 30
0.0
 10
0.3140204534805227
 20
85.6228528974311
 30
0.0
 10
0.3140204534805227
 20
85.6228528974311
 30
0.0
 10
0.3140204534805227
 20
85.6228528974311
 30
0.0
 10
0.2356445311910889
 20
85.55687931888856
 30
0.0
 10
0.2356445311910889
 20
85.55687931888856
 30
0.0
 10
0.2356445311910889
 20
85.55687931888856
 30
0.0
 10
0.1574408636759176
 20
85.49073348557177
 30
0.0
 10
0.1574408636759176
 20
85.49073348557177
 30
0.0
 10
0.1574408636759176
 20
85.49073348557177
 30
0.0
 10
0.0792371961607463
 20
85.42458765225497
 30
0.0
 10
0.0792371961607463
 20
85.42458765225497
 30
0.0
 10
0.0792371961607463
 20
85.42458765225497
 30
0.0
 10
0.0008612738713125
 20
85.35844181893818
 30
0.0
 10
0.0008612738713125
 20
85.35844181893818
 30
0.0
 10
0.0008612738713125
 20
85.35844181893818
 30
0.0
 10
0.00068901909705
 20
84.69250486163938
 30
0.0
 10
0.00068901909705
 20
84.69250486163938
 30
0.0
 10
0.00068901909705
 20
84.69250486163938
 30
0.0
 10
0.00068901909705
 20
84.02656790434058
 30
0.0
 10
0.00068901909705
 20
84.02656790434058
 30
0.0
 10
0.00068901909705
 20
84.02656790434058
 30
0.0
 10
0.00068901909705
 20
83.36063094704178
 30
0.0
 10
0.00068901909705
 20
83.36063094704178
 30
0.0
 10
0.00068901909705
 20
83.36063094704178
 30
0.0
 10
0.0005167643227875
 20
82.694693989743
 30
0.0
 10
0.0005167643227875
 20
82.694693989743
 30
0.0
 10
0.0005167643227875
 20
82.694693989743
 30
0.0
 10
0.000344509548525
 20
82.0287570324442
 30
0.0
 10
0.000344509548525
 20
82.0287570324442
 30
0.0
 10
0.000344509548525
 20
82.0287570324442
 30
0.0
 10
0.000344509548525
 20
81.36282007514541
 30
0.0
 10
0.000344509548525
 20
81.36282007514541
 30
0.0
 10
0.000344509548525
 20
81.36282007514541
 30
0.0
 10
0.000344509548525
 20
80.69688311784661
 30
0.0
 10
0.000344509548525
 20
80.69688311784661
 30
0.0
 10
0.000344509548525
 20
80.69688311784661
 30
0.0
 10
0.0001722547742625
 20
80.03094616054783
 30
0.0
 10
0.0001722547742625
 20
80.03094616054783
 30
0.0
 10
0.1322916666335938
 20
80.03094616054783
 30
0.0
 10
0.2621717664275126
 20
80.01751028815535
 30
0.0
 10
0.3879177516391317
 20
79.9920165815645
 30
0.0
 10
0.5138359916250133
 20
79.96652287497365
 30
0.0
 10
0.635620117028595
 20
79.92897133418442
 30
0.0
 10
0.752236599204302
 20
79.8803954878424
 30
0.0
 10
0.8688530813800089
 20
79.83199189627464
 30
0.0
 10
0.9799574107793162
 20
79.77273625392834
 30
0.0
 10
1.084343803982386
 20
79.70400659899761
 30
0.0
 10
1.188730197185456
 20
79.63510468929262
 30
0.0
 10
1.286398654192289
 20
79.55690102177745
 30
0.0
 10
1.37562662726026
 20
79.47042912509768
 30
0.0
 10
1.464854600328231
 20
79.3839572284179
 30
0.0
 10
1.545986599005865
 20
79.28904484779927
 30
0.0
 10
1.617300075550536
 20
79.1874145309844
 30
0.0
 10
1.688613552095208
 20
79.08561195939527
 30
0.0
 10
1.75028076128118
 20
78.9770914516099
 30
0.0
 10
1.80075141014009
 20
78.8627142814996
 30
0.0
 10
1.851222058999
 20
78.7483371113893
 30
0.0
 10
1.890496147530848
 20
78.62844778850261
 30
0.0
 10
1.917195637541534
 20
78.50425209625936
 30
0.0
 10
1.943895127552221
 20
78.37988414924183
 30
0.0
 10
1.958020019041745
 20
78.25120983286776
 30
0.0
 10
1.958020019041745
 20
78.11960718533122
 30
0.0
 10
1.958020019041745
 20
77.98800453779467
 30
0.0
 10
1.943895127552221
 20
77.85915796664632
 30
0.0
 10
1.917195637541534
 20
77.7347900196288
 30
0.0
 10
1.890496147530848
 20
77.61042207261129
 30
0.0
 10
1.851222058999
 20
77.49018824017607
 30
0.0
 10
1.80075141014009
 20
77.37563881529151
 30
0.0
 10
1.75028076128118
 20
77.26108939040695
 30
0.0
 10
1.688613552095208
 20
77.15222437307305
 30
0.0
 10
1.617300075550536
 20
77.05024954670967
 30
0.0
 10
1.545986599005865
 20
76.94827472034626
 30
0.0
 10
1.464854600328231
 20
76.85319008495337
 30
0.0
 10
1.37562662726026
 20
76.76637367872507
 30
0.0
 10
1.286398654192289
 20
76.67955727249678
 30
0.0
 10
1.188730197185456
 20
76.60100909543308
 30
0.0
 10
1.084343803982386
 20
76.53176267617957
 30
0.0
 10
0.9799574107793162
 20
76.4626885117003
 30
0.0
 10
0.8688530813800089
 20
76.40326061457975
 30
0.0
 10
0.752236599204302
 20
76.35451251346346
 30
0.0
 10
0.635620117028595
 20
76.30576441234717
 30
0.0
 10
0.5138359916250133
 20
76.2680406167837
 30
0.0
 10
0.3879177516391317
 20
76.24237465541857
 30
0.0
 10
0.2621717664275126
 20
76.21670869405347
 30
0.0
 10
0.1322916666335938
 20
76.20327282166099
 30
0.0
 10
0.0001722547742625
 20
76.20327282166099
 30
0.0
 10
0.0001722547742625
 20
76.20327282166099
 30
0.0
 10
0.0055121527763997
 20
73.1483344001157
 30
0.0
 10
0.0055121527763997
 20
73.1483344001157
 30
0.0
 10
0.0055121527763997
 20
73.1483344001157
 30
0.0
 10
0.010852050778537
 20
70.09356823334467
 30
0.0
 10
0.010852050778537
 20
70.09356823334467
 30
0.0
 10
0.010852050778537
 20
70.09356823334467
 30
0.0
 10
0.0161919487806742
 20
67.03862981179937
 30
0.0
 10
0.0161919487806742
 20
67.03862981179937
 30
0.0
 10
0.0161919487806742
 20
67.03862981179937
 30
0.0
 10
0.0215318467828115
 20
63.98369139025408
 30
0.0
 10
0.0215318467828115
 20
63.98369139025408
 30
0.0
 10
0.0215318467828115
 20
63.98369139025408
 30
0.0
 10
0.0268717447849487
 20
60.92875296870879
 30
0.0
 10
0.0268717447849487
 20
60.92875296870879
 30
0.0
 10
0.0268717447849487
 20
60.92875296870879
 30
0.0
 10
0.032211642787086
 20
57.87381454716349
 30
0.0
 10
0.032211642787086
 20
57.87381454716349
 30
0.0
 10
0.032211642787086
 20
57.87381454716349
 30
0.0
 10
0.0375515407892232
 20
54.81904838039246
 30
0.0
 10
0.0375515407892232
 20
54.81904838039246
 30
0.0
 10
0.0375515407892232
 20
54.81904838039246
 30
0.0
 10
0.0428914387913605
 20
51.76410995884717
 30
0.0
 10
0.0428914387913605
 20
51.76410995884717
 30
0.0
 10
0.1750108506506917
 20
51.76410995884717
 30
0.0
 10
0.3038574217990356
 20
51.75084634122896
 30
0.0
 10
0.4278808592680298
 20
51.72535263463811
 30
0.0
 10
0.5520765515112864
 20
51.69985892804726
 30
0.0
 10
0.6714491100751933
 20
51.6624796420323
 30
0.0
 10
0.785137261088438
 20
51.6142483052388
 30
0.0
 10
0.8986531573274201
 20
51.5660169684453
 30
0.0
 10
1.006312391241478
 20
51.50693358087327
 30
0.0
 10
1.106909179410773
 20
51.43837618071679
 30
0.0
 10
1.207505967580068
 20
51.36981878056032
 30
0.0
 10
1.301212564778863
 20
51.29178736781942
 30
0.0
 10
1.386478678038797
 20
51.2054877259139
 30
0.0
 10
1.47174479129873
 20
51.1191880840084
 30
0.0
 10
1.548914930168327
 20
51.0246202129383
 30
0.0
 10
1.616438801679224
 20
50.92316215089768
 30
0.0
 10
1.68396267319012
 20
50.82170408885708
 30
0.0
 10
1.742184786890843
 20
50.7131835810717
 30
0.0
 10
1.789554849813028
 20
50.59915092050993
 30
0.0
 10
1.836924912735213
 20
50.48511825994817
 30
0.0
 10
1.873787434427387
 20
50.36522893706147
 30
0.0
 10
1.898764376695448
 20
50.24103324481822
 30
0.0
 10
1.923569064189247
 20
50.11683755257496
 30
0.0
 10
1.936660427033196
 20
49.98833549097514
 30
0.0
 10
1.936660427033196
 20
49.85656058866434
 30
0.0
 10
1.936660427033196
 20
49.72478568635353
 30
0.0
 10
1.923052299866459
 20
49.59628362475371
 30
0.0
 10
1.897041828952823
 20
49.47191567773619
 30
0.0
 10
1.871031358039187
 20
49.34771998549294
 30
0.0
 10
1.832790798152913
 20
49.2280029173805
 30
0.0
 10
1.783698187488103
 20
49.11379800204447
 30
0.0
 10
1.734605576823293
 20
48.99959308670844
 30
0.0
 10
1.674316405831421
 20
48.89124483369733
 30
0.0
 10
1.604553222255112
 20
48.78978677165672
 30
0.0
 10
1.534790038678802
 20
48.68832870961612
 30
0.0
 10
1.455208332969531
 20
48.593760838546
 30
0.0
 10
1.367358398095661
 20
48.5074611966405
 30
0.0
 10
1.27950846322179
 20
48.42116155473499
 30
0.0
 10
1.183562553957582
 20
48.34295788721982
 30
0.0
 10
1.080381944174349
 20
48.27440048706335
 30
0.0
 10
0.9773735891653789
 20
48.20584308690687
 30
0.0
 10
0.8674750431859091
 20
48.1469319541091
 30
0.0
 10
0.7517198348815145
 20
48.09852836254134
 30
0.0
 10
0.6359646265771199
 20
48.05029702574785
 30
0.0
 10
0.5146972654963257
 20
48.01291773973288
 30
0.0
 10
0.3889512802847067
 20
47.98742403314203
 30
0.0
 10
0.2632052950730876
 20
47.96193032655118
 30
0.0
 10
0.1333251952791687
 20
47.94866670893298
 30
0.0
 10
0.0001722547742625
 20
47.94866670893298
 30
0.0
 10
0.0001722547742625
 20
47.94866670893298
 30
0.0
 10
0.0001722547742625
 20
44.87994790544668
 30
0.0
 10
0.0001722547742625
 20
44.87994790544668
 30
0.0
 10
0.0001722547742625
 20
44.87994790544668
 30
0.0
 10
0.0001722547742625
 20
41.81105684718613
 30
0.0
 10
0.0001722547742625
 20
41.81105684718613
 30
0.0
 10
0.0001722547742625
 20
41.81105684718613
 30
0.0
 10
0.0001722547742625
 20
38.74233804369983
 30
0.0
 10
0.0001722547742625
 20
38.74233804369983
 30
0.0
 10
0.0001722547742625
 20
38.74233804369983
 30
0.0
 10
0.0001722547742625
 20
35.67361924021354
 30
0.0
 10
0.0001722547742625
 20
35.67361924021354
 30
0.0
 10
0.0001722547742625
 20
35.67361924021354
 30
0.0
 10
0.0001722547742625
 20
32.60490043672725
 30
0.0
 10
0.0001722547742625
 20
32.60490043672725
 30
0.0
 10
0.0001722547742625
 20
32.60490043672725
 30
0.0
 10
0.0001722547742625
 20
29.53618163324096
 30
0.0
 10
0.0001722547742625
 20
29.53618163324096
 30
0.0
 10
0.0001722547742625
 20
29.53618163324096
 30
0.0
 10
0.0001722547742625
 20
26.4672905749804
 30
0.0
 10
0.0001722547742625
 20
26.4672905749804
 30
0.0
 10
0.0001722547742625
 20
26.4672905749804
 30
0.0
 10
0.0001722547742625
 20
23.39857177149411
 30
0.0
 10
0.0001722547742625
 20
23.39857177149411
 30
0.0
 10
0.1333251952791687
 20
23.39857177149411
 30
0.0
 10
0.2632052950730876
 20
23.3853081538759
 30
0.0
 10
0.3889512802847067
 20
23.35981444728505
 30
0.0
 10
0.5146972654963257
 20
23.3343207406942
 30
0.0
 10
0.6359646265771199
 20
23.29676919990498
 30
0.0
 10
0.7517198348815145
 20
23.24853786311148
 30
0.0
 10
0.8674750431859091
 20
23.20030652631798
 30
0.0
 10
0.9773735891653789
 20
23.14122313874595
 30
0.0
 10
1.080381944174349
 20
23.07266573858947
 30
0.0
 10
1.183562553957582
 20
23.00393608365874
 30
0.0
 10
1.27950846322179
 20
22.92590467091783
 30
0.0
 10
1.367358398095661
 20
22.83960502901232
 30
0.0
 10
1.455208332969531
 20
22.75330538710681
 30
0.0
 10
1.534790038678802
 20
22.65873751603671
 30
0.0
 10
1.604553222255112
 20
22.5572794539961
 30
0.0
 10
1.674316405831421
 20
22.45582139195549
 30
0.0
 10
1.734605576823293
 20
22.34730088417012
 30
0.0
 10
1.783698187488103
 20
22.23326822360835
 30
0.0
 10
1.832790798152913
 20
22.11923556304658
 30
0.0
 10
1.871031358039187
 20
21.99934624015989
 30
0.0
 10
1.897041828952823
 20
21.87515054791663
 30
0.0
 10
1.923052299866459
 20
21.75095485567337
 30
0.0
 10
1.936660427033196
 20
21.62245279407355
 30
0.0
 10
1.936660427033196
 20
21.49067789176275
 30
0.0
 10
1.936660427033196
 20
21.35890298945194
 30
0.0
 10
1.922880045092197
 20
21.23022867307786
 30
0.0
 10
1.89686957417856
 20
21.10568847128608
 30
0.0
 10
1.870686848490662
 20
20.98132052426856
 30
0.0
 10
1.832274033830126
 20
20.86108669183334
 30
0.0
 10
1.782836913616791
 20
20.74653726694878
 30
0.0
 10
1.733399793403456
 20
20.63198784206423
 30
0.0
 10
1.672938367637321
 20
20.52312282473033
 30
0.0
 10
1.602830674512487
 20
20.42114799836694
 30
0.0
 10
1.532722981387653
 20
20.31917317200354
 30
0.0
 10
1.452969020904119
 20
20.22408853661064
 30
0.0
 10
1.364946831255986
 20
20.13709987560809
 30
0.0
 10
1.277096896382115
 20
20.05011121460553
 30
0.0
 10
1.180806477569382
 20
19.97156303754183
 30
0.0
 10
1.077625867786149
 20
19.90248887306257
 30
0.0
 10
0.974617512777179
 20
19.83341470858331
 30
0.0
 10
0.8645467120234467
 20
19.77381455668849
 30
0.0
 10
0.7489637584933146
 20
19.72523871034647
 30
0.0
 10
0.6333808049631826
 20
19.67649060923018
 30
0.0
 10
0.5122856986566509
 20
19.63859455889244
 30
0.0
 10
0.3870564777678192
 20
19.61292859752733
 30
0.0
 10
0.2618272568789877
 20
19.58726263616221
 30
0.0
 10
0.1322916666335938
 20
19.57382676376974
 30
0.0
 10
0.0001722547742625
 20
19.57382676376974
 30
0.0
 10
0.0001722547742625
 20
19.57382676376974
 30
0.0
 10
0.000344509548525
 20
18.89462618885273
 30
0.0
 10
0.000344509548525
 20
18.89462618885273
 30
0.0
 10
0.000344509548525
 20
18.89462618885273
 30
0.0
 10
0.000344509548525
 20
18.21559786870999
 30
0.0
 10
0.000344509548525
 20
18.21559786870999
 30
0.0
 10
0.000344509548525
 20
18.21559786870999
 30
0.0
 10
0.000344509548525
 20
17.53656954856725
 30
0.0
 10
0.000344509548525
 20
17.53656954856725
 30
0.0
 10
0.000344509548525
 20
17.53656954856725
 30
0.0
 10
0.000344509548525
 20
16.85736897365024
 30
0.0
 10
0.000344509548525
 20
16.85736897365024
 30
0.0
 10
0.000344509548525
 20
16.85736897365024
 30
0.0
 10
0.000344509548525
 20
16.17816839873324
 30
0.0
 10
0.000344509548525
 20
16.17816839873324
 30
0.0
 10
0.000344509548525
 20
16.17816839873324
 30
0.0
 10
0.0005167643227875
 20
15.49914007859049
 30
0.0
 10
0.0005167643227875
 20
15.49914007859049
 30
0.0
 10
0.0005167643227875
 20
15.49914007859049
 30
0.0
 10
0.00068901909705
 20
14.82011175844775
 30
0.0
 10
0.00068901909705
 20
14.82011175844775
 30
0.0
 10
0.00068901909705
 20
14.82011175844775
 30
0.0
 10
0.00068901909705
 20
14.14091118353075
 30
0.0
 10
0.00068901909705
 20
14.14091118353075
 30
0.0
 10
0.00068901909705
 20
14.14091118353075
 30
0.0
 10
0.0788926866122213
 20
14.07493760498821
 30
0.0
 10
0.0788926866122213
 20
14.07493760498821
 30
0.0
 10
0.0788926866122213
 20
14.07493760498821
 30
0.0
 10
0.1572686089016551
 20
14.00879177167141
 30
0.0
 10
0.1572686089016551
 20
14.00879177167141
 30
0.0
 10
0.1572686089016551
 20
14.00879177167141
 30
0.0
 10
0.2356445311910889
 20
13.94264593835462
 30
0.0
 10
0.2356445311910889
 20
13.94264593835462
 30
0.0
 10
0.2356445311910889
 20
13.94264593835462
 30
0.0
 10
0.3138481987062602
 20
13.87650010503782
 30
0.0
 10
0.3138481987062602
 20
13.87650010503782
 30
0.0
 10
0.3138481987062602
 20
13.87650010503782
 30
0.0
 10
0.3920518662214315
 20
13.81035427172102
 30
0.0
 10
0.3920518662214315
 20
13.81035427172102
 30
0.0
 10
0.3920518662214315
 20
13.81035427172102
 30
0.0
 10
0.4704277885108653
 20
13.74420843840423
 30
0.0
 10
0.4704277885108653
 20
13.74420843840423
 30
0.0
 10
0.4704277885108653
 20
13.74420843840423
 30
0.0
 10
0.5488037108002991
 20
13.67806260508743
 30
0.0
 10
0.5488037108002991
 20
13.67806260508743
 30
0.0
 10
0.5488037108002991
 20
13.67806260508743
 30
0.0
 10
0.6270073783154704
 20
13.6120890265449
 30
0.0
 10
0.6270073783154704
 20
13.6120890265449
 30
0.0
 10
0.6270073783154704
 20
13.6120890265449
 30
0.0
 10
0.7334608288096904
 20
13.52372232734824
 30
0.0
 10
0.7334608288096904
 20
13.52372232734824
 30
0.0
 10
0.7334608288096904
 20
13.52372232734824
 30
0.0
 10
0.8397420245296479
 20
13.43518337337732
 30
0.0
 10
0.8397420245296479
 20
13.43518337337732
 30
0.0
 10
0.8397420245296479
 20
13.43518337337732
 30
0.0
 10
0.9460232202496054
 20
13.3466444194064
 30
0.0
 10
0.9460232202496054
 20
13.3466444194064
 30
0.0
 10
0.9460232202496054
 20
13.3466444194064
 30
0.0
 10
1.052476670743825
 20
13.25810546543547
 30
0.0
 10
1.052476670743825
 20
13.25810546543547
 30
0.0
 10
1.052476670743825
 20
13.25810546543547
 30
0.0
 10
1.158757866463783
 20
13.16956651146455
 30
0.0
 10
1.158757866463783
 20
13.16956651146455
 30
0.0
 10
1.158757866463783
 20
13.16956651146455
 30
0.0
 10
1.26503906218374
 20
13.08102755749363
 30
0.0
 10
1.26503906218374
 20
13.08102755749363
 30
0.0
 10
1.26503906218374
 20
13.08102755749363
 30
0.0
 10
1.37149251267796
 20
12.99248860352271
 30
0.0
 10
1.37149251267796
 20
12.99248860352271
 30
0.0
 10
1.37149251267796
 20
12.99248860352271
 30
0.0
 10
1.477773708397918
 20
12.90412190432605
 30
0.0
 10
1.477773708397918
 20
12.90412190432605
 30
0.0
 10
1.477773708397918
 20
12.90412190432605
 30
0.0
 10
1.575097655856226
 20
12.7716579829182
 30
0.0
 10
1.575097655856226
 20
12.7716579829182
 30
0.0
 10
1.575097655856226
 20
12.7716579829182
 30
0.0
 10
1.672249348540271
 20
12.6393663162846
 30
0.0
 10
1.672249348540271
 20
12.6393663162846
 30
0.0
 10
1.672249348540271
 20
12.6393663162846
 30
0.0
 10
1.769573295998579
 20
12.50690239487675
 30
0.0
 10
1.769573295998579
 20
12.50690239487675
 30
0.0
 10
1.769573295998579
 20
12.50690239487675
 30
0.0
 10
1.866897243456887
 20
12.37443847346889
 30
0.0
 10
1.866897243456887
 20
12.37443847346889
 30
0.0
 10
1.866897243456887
 20
12.37443847346889
 30
0.0
 10
1.964221190915195
 20
12.24197455206103
 30
0.0
 10
1.964221190915195
 20
12.24197455206103
 30
0.0
 10
1.964221190915195
 20
12.24197455206103
 30
0.0
 10
2.061545138373503
 20
12.10951063065318
 30
0.0
 10
2.061545138373503
 20
12.10951063065318
 30
0.0
 10
2.061545138373503
 20
12.10951063065318
 30
0.0
 10
2.158869085831811
 20
11.97721896401958
 30
0.0
 10
2.158869085831811
 20
11.97721896401958
 30
0.0
 10
2.158869085831811
 20
11.97721896401958
 30
0.0
 10
2.256193033290118
 20
11.84475504261173
 30
0.0
 10
2.256193033290118
 20
11.84475504261173
 30
0.0
 10
2.256193033290118
 20
11.84475504261173
 30
0.0
 10
2.318204752024616
 20
11.720903859917
 30
0.0
 10
2.318204752024616
 20
11.720903859917
 30
0.0
 10
2.318204752024616
 20
11.720903859917
 30
0.0
 10
2.380388725533375
 20
11.596880422448
 30
0.0
 10
2.380388725533375
 20
11.596880422448
 30
0.0
 10
2.380388725533375
 20
11.596880422448
 30
0.0
 10
2.442572699042135
 20
11.47285698497901
 30
0.0
 10
2.442572699042135
 20
11.47285698497901
 30
0.0
 10
2.442572699042135
 20
11.47285698497901
 30
0.0
 10
2.504584417776632
 20
11.34883354751002
 30
0.0
 10
2.504584417776632
 20
11.34883354751002
 30
0.0
 10
2.504584417776632
 20
11.34883354751002
 30
0.0
 10
2.566596136511129
 20
11.22481011004102
 30
0.0
 10
2.566596136511129
 20
11.22481011004102
 30
0.0
 10
2.566596136511129
 20
11.22481011004102
 30
0.0
 10
2.628780110019888
 20
11.10078667257203
 30
0.0
 10
2.628780110019888
 20
11.10078667257203
 30
0.0
 10
2.628780110019888
 20
11.10078667257203
 30
0.0
 10
2.690964083528648
 20
10.97676323510303
 30
0.0
 10
2.690964083528648
 20
10.97676323510303
 30
0.0
 10
2.690964083528648
 20
10.97676323510303
 30
0.0
 10
2.752975802263145
 20
10.8529120524083
 30
0.0
 10
2.752975802263145
 20
10.8529120524083
 30
0.0
 10
2.752975802263145
 20
10.8529120524083
 30
0.0
 10
2.806030272735993
 20
10.71149088273879
 30
0.0
 10
2.806030272735993
 20
10.71149088273879
 30
0.0
 10
2.806030272735993
 20
10.71149088273879
 30
0.0
 10
2.85908474320884
 20
10.57024196784355
 30
0.0
 10
2.85908474320884
 20
10.57024196784355
 30
0.0
 10
2.85908474320884
 20
10.57024196784355
 30
0.0
 10
2.912139213681688
 20
10.42882079817405
 30
0.0
 10
2.912139213681688
 20
10.42882079817405
 30
0.0
 10
2.912139213681688
 20
10.42882079817405
 30
0.0
 10
2.965193684154535
 20
10.28739962850454
 30
0.0
 10
2.965193684154535
 20
10.28739962850454
 30
0.0
 10
2.965193684154535
 20
10.28739962850454
 30
0.0
 10
3.018248154627383
 20
10.14597845883503
 30
0.0
 10
3.018248154627383
 20
10.14597845883503
 30
0.0
 10
3.018248154627383
 20
10.14597845883503
 30
0.0
 10
3.07130262510023
 20
10.00455728916553
 30
0.0
 10
3.07130262510023
 20
10.00455728916553
 30
0.0
 10
3.07130262510023
 20
10.00455728916553
 30
0.0
 10
3.124357095573078
 20
9.863308374270284
 30
0.0
 10
3.124357095573078
 20
9.863308374270284
 30
0.0
 10
3.124357095573078
 20
9.863308374270284
 30
0.0
 10
3.177239311271662
 20
9.721887204600778
 30
0.0
 10
3.177239311271662
 20
9.721887204600778
 30
0.0
 10
3.177239311271662
 20
9.721887204600778
 30
0.0
 10
3.213585068641049
 20
9.571681041443886
 30
0.0
 10
3.213585068641049
 20
9.571681041443886
 30
0.0
 10
3.213585068641049
 20
9.571681041443886
 30
0.0
 10
3.250103080784696
 20
9.421474878286993
 30
0.0
 10
3.250103080784696
 20
9.421474878286993
 30
0.0
 10
3.250103080784696
 20
9.421474878286993
 30
0.0
 10
3.286621092928345
 20
9.2712687151301
 30
0.0
 10
3.286621092928345
 20
9.2712687151301
 30
0.0
 10
3.286621092928345
 20
9.2712687151301
 30
0.0
 10
3.323139105071993
 20
9.121062551973207
 30
0.0
 10
3.323139105071993
 20
9.121062551973207
 30
0.0
 10
3.323139105071993
 20
9.121062551973207
 30
0.0
 10
3.359657117215642
 20
8.970856388816314
 30
0.0
 10
3.359657117215642
 20
8.970856388816314
 30
0.0
 10
3.359657117215642
 20
8.970856388816314
 30
0.0
 10
3.396002874585027
 20
8.82065022565942
 30
0.0
 10
3.396002874585027
 20
8.82065022565942
 30
0.0
 10
3.396002874585027
 20
8.82065022565942
 30
0.0
 10
3.432348631954413
 20
8.670444062502527
 30
0.0
 10
3.432348631954413
 20
8.670444062502527
 30
0.0
 10
3.432348631954413
 20
8.670444062502527
 30
0.0
 10
3.468866644098061
 20
8.520237899345636
 30
0.0
 10
3.468866644098061
 20
8.520237899345636
 30
0.0
 10
3.468866644098061
 20
8.520237899345636
 30
0.0
 10
3.478512911456761
 20
8.37881672967613
 30
0.0
 10
3.478512911456761
 20
8.37881672967613
 30
0.0
 10
3.478512911456761
 20
8.37881672967613
 30
0.0
 10
3.488331433589723
 20
8.237567814780887
 30
0.0
 10
3.488331433589723
 20
8.237567814780887
 30
0.0
 10
3.488331433589723
 20
8.237567814780887
 30
0.0
 10
3.498149955722685
 20
8.09614664511138
 30
0.0
 10
3.498149955722685
 20
8.09614664511138
 30
0.0
 10
3.498149955722685
 20
8.09614664511138
 30
0.0
 10
3.507796223081384
 20
7.954725475441874
 30
0.0
 10
3.507796223081384
 20
7.954725475441874
 30
0.0
 10
3.507796223081384
 20
7.954725475441874
 30
0.0
 10
3.517614745214347
 20
7.813304305772369
 30
0.0
 10
3.517614745214347
 20
7.813304305772369
 30
0.0
 10
3.517614745214347
 20
7.813304305772369
 30
0.0
 10
3.527433267347309
 20
7.671883136102863
 30
0.0
 10
3.527433267347309
 20
7.671883136102863
 30
0.0
 10
3.527433267347309
 20
7.671883136102863
 30
0.0
 10
3.537079534706008
 20
7.530634221207619
 30
0.0
 10
3.537079534706008
 20
7.530634221207619
 30
0.0
 10
3.537079534706008
 20
7.530634221207619
 30
0.0
 10
3.54689805683897
 20
7.389213051538114
 30
0.0
 10
3.54689805683897
 20
7.389213051538114
 30
0.0
 10
3.54689805683897
 20
7.389213051538114
 30
0.0
 10
3.54689805683897
 20
6.465582951942633
 30
0.0
 10
3.54689805683897
 20
6.465582951942633
 30
0.0
 10
3.54689805683897
 20
6.465582951942633
 30
0.0
 10
3.54689805683897
 20
5.541952852347151
 30
0.0
 10
3.54689805683897
 20
5.541952852347151
 30
0.0
 10
3.54689805683897
 20
5.541952852347151
 30
0.0
 10
3.54689805683897
 20
4.61832275275167
 30
0.0
 10
3.54689805683897
 20
4.61832275275167
 30
0.0
 10
3.54689805683897
 20
4.61832275275167
 30
0.0
 10
3.54689805683897
 20
3.694692653156188
 30
0.0
 10
3.54689805683897
 20
3.694692653156188
 30
0.0
 10
3.54689805683897
 20
3.694692653156188
 30
0.0
 10
3.54689805683897
 20
2.771062553560707
 30
0.0
 10
3.54689805683897
 20
2.771062553560707
 30
0.0
 10
3.54689805683897
 20
2.771062553560707
 30
0.0
 10
3.54689805683897
 20
1.847432453965225
 30
0.0
 10
3.54689805683897
 20
1.847432453965225
 30
0.0
 10
3.54689805683897
 20
1.847432453965225
 30
0.0
 10
3.54689805683897
 20
0.9238023543697439
 30
0.0
 10
3.54689805683897
 20
0.9238023543697439
 30
0.0
 10
3.54689805683897
 20
0.9238023543697439
 30
0.0
 10
3.54689805683897
 20
0.0001722547742625
 30
0.0
 10
3.54689805683897
 20
0.0001722547742625
 30
0.0
 10
3.54689805683897
 20
0.0001722547742625
 30
0.0
 10
9.032695852776548
 20
0.0001722547742625
 30
0.0
 10
9.032695852776548
 20
0.0001722547742625
 30
0.0
 10
9.032695852776548
 20
0.0001722547742625
 30
0.0
 10
14.51832139393986
 20
0.0001722547742625
 30
0.0
 10
14.51832139393986
 20
0.0001722547742625
 30
0.0
 10
14.51832139393986
 20
0.0001722547742625
 30
0.0
 10
20.00411918987744
 20
0.0001722547742625
 30
0.0
 10
20.00411918987744
 20
0.0001722547742625
 30
0.0
 10
20.00411918987744
 20
0.0001722547742625
 30
0.0
 10
25.48991698581502
 20
0.0001722547742625
 30
0.0
 10
25.48991698581502
 20
0.0001722547742625
 30
0.0
 10
25.48991698581502
 20
0.0001722547742625
 30
0.0
 10
30.97554252697834
 20
0.0001722547742625
 30
0.0
 10
30.97554252697834
 20
0.0001722547742625
 30
0.0
 10
30.97554252697834
 20
0.0001722547742625
 30
0.0
 10
36.46134032291592
 20
0.0001722547742625
 30
0.0
 10
36.46134032291592
 20
0.0001722547742625
 30
0.0
 10
36.46134032291592
 20
0.0001722547742625
 30
0.0
 10
41.94713811885349
 20
0.0001722547742625
 30
0.0
 10
41.94713811885349
 20
0.0001722547742625
 30
0.0
 10
41.94713811885349
 20
0.0001722547742625
 30
0.0
 10
47.43276366001681
 20
0.0001722547742625
 30
0.0
 10
47.43276366001681
 20
0.0001722547742625
 30
0.0
 10
47.43276366001681
 20
0.1331529405049062
 30
0.0
 10
47.44602727763503
 20
0.2614827473304627
 30
0.0
 10
47.47134872945161
 20
0.3843004013796193
 30
0.0
 10
47.49684243604246
 20
0.5071180554287761
 30
0.0
 10
47.53404946728315
 20
0.624423556701533
 30
0.0
 10
47.58228080407665
 20
0.7351833765523152
 30
0.0
 10
47.63051214087015
 20
0.8459431964030976
 30
0.0
 10
47.68942327366793
 20
0.9501573348319051
 30
0.0
 10
47.7579806738244
 20
1.047136772741688
 30
0.0
 10
47.82653807398087
 20
1.144116210651471
 30
0.0
 10
47.90439723194751
 20
1.233688693267967
 30
0.0
 10
47.99069687385303
 20
1.3148206919456
 30
0.0
 10
48.07699651575853
 20
1.395952690623234
 30
0.0
 10
48.17139213205438
 20
1.468988714910531
 30
0.0
 10
48.27302244886925
 20
1.53255072661339
 30
0.0
 10
48.37448051090986
 20
1.596284993090512
 30
0.0
 10
48.48300101869523
 20
1.65071750175746
 30
0.0
 10
48.59720593403126
 20
1.69498697874292
 30
0.0
 10
48.71158310414155
 20
1.739256455728381
 30
0.0
 10
48.83147242702825
 20
1.773362901032354
 30
0.0
 10
48.95618488359429
 20
1.796445040783528
 30
0.0
 10
49.08055283061181
 20
1.819527180534702
 30
0.0
 10
49.20974391130868
 20
1.831585014733076
 30
0.0
 10
49.34186332316801
 20
1.831585014733076
 30
0.0
 10
49.47398273502734
 20
1.831585014733076
 30
0.0
 10
49.60317381572421
 20
1.819527180534702
 30
0.0
 10
49.72788627229026
 20
1.796445040783528
 30
0.0
 10
49.8525987288563
 20
1.773362901032354
 30
0.0
 10
49.97283256129152
 20
1.739256455728381
 30
0.0
 10
50.08738198617608
 20
1.69498697874292
 30
0.0
 10
50.20193141106063
 20
1.65071750175746
 30
0.0
 10
50.31079642839453
 20
1.596284993090512
 30
0.0
 10
50.41277125475792
 20
1.53255072661339
 30
0.0
 10
50.51457382634705
 20
1.468988714910531
 30
0.0
 10
50.60948620696568
 20
1.395952690623234
 30
0.0
 10
50.69613035841972
 20
1.3148206919456
 30
0.0
 10
50.78277450987375
 20
1.233688693267967
 30
0.0
 10
50.86132268693745
 20
1.144116210651471
 30
0.0
 10
50.93005234186818
 20
1.047136772741688
 30
0.0
 10
50.99895425157318
 20
0.9501573348319051
 30
0.0
 10
51.05820989391948
 20
0.8459431964030976
 30
0.0
 10
51.10661348548724
 20
0.7351833765523152
 30
0.0
 10
51.15518933182926
 20
0.624423556701533
 30
0.0
 10
51.19274087261849
 20
0.5071180554287761
 30
0.0
 10
51.21823457920933
 20
0.3843004013796193
 30
0.0
 10
51.24372828580018
 20
0.2614827473304627
 30
0.0
 10
51.25716415819266
 20
0.1331529405049062
 30
0.0
 10
51.25716415819266
 20
0.0001722547742625
 30
0.0
 10
51.25716415819266
 20
0.0001722547742625
 30
0.0
 10
56.73159313902891
 20
0.0001722547742625
 30
0.0
 10
56.73159313902891
 20
0.0001722547742625
 30
0.0
 10
56.73159313902891
 20
0.0001722547742625
 30
0.0
 10
62.20602211986517
 20
0.0001722547742625
 30
0.0
 10
62.20602211986517
 20
0.0001722547742625
 30
0.0
 10
62.20602211986517
 20
0.0001722547742625
 30
0.0
 10
67.68062335547567
 20
0.0001722547742625
 30
0.0
 10
67.68062335547567
 20
0.0001722547742625
 30
0.0
 10
67.68062335547567
 20
0.0001722547742625
 30
0.0
 10
73.15505233631194
 20
0.0001722547742625
 30
0.0
 10
73.15505233631194
 20
0.0001722547742625
 30
0.0
 10
73.15505233631194
 20
0.0001722547742625
 30
0.0
 10
78.62948131714819
 20
0.0001722547742625
 30
0.0
 10
78.62948131714819
 20
0.0001722547742625
 30
0.0
 10
78.62948131714819
 20
0.0001722547742625
 30
0.0
 10
84.10408255275871
 20
0.0001722547742625
 30
0.0
 10
84.10408255275871
 20
0.0001722547742625
 30
0.0
 10
84.10408255275871
 20
0.0001722547742625
 30
0.0
 10
89.57851153359496
 20
0.0001722547742625
 30
0.0
 10
89.57851153359496
 20
0.0001722547742625
 30
0.0
 10
89.57851153359496
 20
0.0001722547742625
 30
0.0
 10
95.05294051443121
 20
0.0001722547742625
 30
0.0
 10
95.05294051443121
 20
0.0001722547742625
 30
0.0
 10
95.05294051443121
 20
0.0001722547742625
 30
0.0
 10
95.05294051443121
 20
0.9238023543697439
 30
0.0
 10
95.05294051443121
 20
0.9238023543697439
 30
0.0
 10
95.05294051443121
 20
0.9238023543697439
 30
0.0
 10
95.05294051443121
 20
1.847432453965225
 30
0.0
 10
95.05294051443121
 20
1.847432453965225
 30
0.0
 10
95.05294051443121
 20
1.847432453965225
 30
0.0
 10
95.05294051443121
 20
2.771062553560707
 30
0.0
 10
95.05294051443121
 20
2.771062553560707
 30
0.0
 10
95.05294051443121
 20
2.771062553560707
 30
0.0
 10
95.05294051443121
 20
3.694692653156188
 30
0.0
 10
95.05294051443121
 20
3.694692653156188
 30
0.0
 10
95.05294051443121
 20
3.694692653156188
 30
0.0
 10
95.05294051443121
 20
4.61832275275167
 30
0.0
 10
95.05294051443121
 20
4.61832275275167
 30
0.0
 10
95.05294051443121
 20
4.61832275275167
 30
0.0
 10
95.05294051443121
 20
5.541952852347151
 30
0.0
 10
95.05294051443121
 20
5.541952852347151
 30
0.0
 10
95.05294051443121
 20
5.541952852347151
 30
0.0
 10
95.05294051443121
 20
6.465582951942633
 30
0.0
 10
95.05294051443121
 20
6.465582951942633
 30
0.0
 10
95.05294051443121
 20
6.465582951942633
 30
0.0
 10
95.05294051443121
 20
7.389213051538114
 30
0.0
 10
95.05294051443121
 20
7.389213051538114
 30
0.0
 10
95.05294051443121
 20
7.389213051538114
 30
0.0
 10
95.05311276920547
 20
7.530634221207619
 30
0.0
 10
95.05311276920547
 20
7.530634221207619
 30
0.0
 10
95.05311276920547
 20
7.530634221207619
 30
0.0
 10
95.05328502397974
 20
7.671883136102863
 30
0.0
 10
95.05328502397974
 20
7.671883136102863
 30
0.0
 10
95.05328502397974
 20
7.671883136102863
 30
0.0
 10
95.053457278754
 20
7.813304305772369
 30
0.0
 10
95.053457278754
 20
7.813304305772369
 30
0.0
 10
95.053457278754
 20
7.813304305772369
 30
0.0
 10
95.05362953352827
 20
7.954725475441874
 30
0.0
 10
95.05362953352827
 20
7.954725475441874
 30
0.0
 10
95.05362953352827
 20
7.954725475441874
 30
0.0
 10
95.05380178830252
 20
8.09614664511138
 30
0.0
 10
95.05380178830252
 20
8.09614664511138
 30
0.0
 10
95.05380178830252
 20
8.09614664511138
 30
0.0
 10
95.05397404307679
 20
8.237567814780887
 30
0.0
 10
95.05397404307679
 20
8.237567814780887
 30
0.0
 10
95.05397404307679
 20
8.237567814780887
 30
0.0
 10
95.05414629785105
 20
8.37881672967613
 30
0.0
 10
95.05414629785105
 20
8.37881672967613
 30
0.0
 10
95.05414629785105
 20
8.37881672967613
 30
0.0
 10
95.05431855262532
 20
8.520237899345636
 30
0.0
 10
95.05431855262532
 20
8.520237899345636
 30
0.0
 10
95.05431855262532
 20
8.520237899345636
 30
0.0
 10
95.0851521572183
 20
8.670444062502527
 30
0.0
 10
95.0851521572183
 20
8.670444062502527
 30
0.0
 10
95.0851521572183
 20
8.670444062502527
 30
0.0
 10
95.11598576181129
 20
8.82065022565942
 30
0.0
 10
95.11598576181129
 20
8.82065022565942
 30
0.0
 10
95.11598576181129
 20
8.82065022565942
 30
0.0
 10
95.14699162117853
 20
8.970856388816314
 30
0.0
 10
95.14699162117853
 20
8.970856388816314
 30
0.0
 10
95.14699162117853
 20
8.970856388816314
 30
0.0
 10
95.17782522577151
 20
9.121062551973207
 30
0.0
 10
95.17782522577151
 20
9.121062551973207
 30
0.0
 10
95.17782522577151
 20
9.121062551973207
 30
0.0
 10
95.20865883036451
 20
9.2712687151301
 30
0.0
 10
95.20865883036451
 20
9.2712687151301
 30
0.0
 10
95.20865883036451
 20
9.2712687151301
 30
0.0
 10
95.23966468973175
 20
9.421474878286993
 30
0.0
 10
95.23966468973175
 20
9.421474878286993
 30
0.0
 10
95.23966468973175
 20
9.421474878286993
 30
0.0
 10
95.27049829432474
 20
9.571681041443886
 30
0.0
 10
95.27049829432474
 20
9.571681041443886
 30
0.0
 10
95.27049829432474
 20
9.571681041443886
 30
0.0
 10
95.30133189891772
 20
9.721887204600778
 30
0.0
 10
95.30133189891772
 20
9.721887204600778
 30
0.0
 10
95.30133189891772
 20
9.721887204600778
 30
0.0
 10
95.35231931209943
 20
9.863308374270284
 30
0.0
 10
95.35231931209943
 20
9.863308374270284
 30
0.0
 10
95.35231931209943
 20
9.863308374270284
 30
0.0
 10
95.40330672528113
 20
10.00455728916553
 30
0.0
 10
95.40330672528113
 20
10.00455728916553
 30
0.0
 10
95.40330672528113
 20
10.00455728916553
 30
0.0
 10
95.45429413846281
 20
10.14597845883503
 30
0.0
 10
95.45429413846281
 20
10.14597845883503
 30
0.0
 10
95.45429413846281
 20
10.14597845883503
 30
0.0
 10
95.50545380641879
 20
10.28739962850454
 30
0.0
 10
95.50545380641879
 20
10.28739962850454
 30
0.0
 10
95.50545380641879
 20
10.28739962850454
 30
0.0
 10
95.55661347437474
 20
10.42882079817405
 30
0.0
 10
95.55661347437474
 20
10.42882079817405
 30
0.0
 10
95.55661347437474
 20
10.42882079817405
 30
0.0
 10
95.60760088755644
 20
10.57024196784355
 30
0.0
 10
95.60760088755644
 20
10.57024196784355
 30
0.0
 10
95.60760088755644
 20
10.57024196784355
 30
0.0
 10
95.65858830073813
 20
10.71149088273879
 30
0.0
 10
95.65858830073813
 20
10.71149088273879
 30
0.0
 10
95.65858830073813
 20
10.71149088273879
 30
0.0
 10
95.70957571391983
 20
10.8529120524083
 30
0.0
 10
95.70957571391983
 20
10.8529120524083
 30
0.0
 10
95.70957571391983
 20
10.8529120524083
 30
0.0
 10
95.77933889749615
 20
10.97676323510303
 30
0.0
 10
95.77933889749615
 20
10.97676323510303
 30
0.0
 10
95.77933889749615
 20
10.97676323510303
 30
0.0
 10
95.84910208107245
 20
11.10078667257203
 30
0.0
 10
95.84910208107245
 20
11.10078667257203
 30
0.0
 10
95.84910208107245
 20
11.10078667257203
 30
0.0
 10
95.91903751942303
 20
11.22481011004102
 30
0.0
 10
95.91903751942303
 20
11.22481011004102
 30
0.0
 10
95.91903751942303
 20
11.22481011004102
 30
0.0
 10
95.98880070299933
 20
11.34883354751002
 30
0.0
 10
95.98880070299933
 20
11.34883354751002
 30
0.0
 10
95.98880070299933
 20
11.34883354751002
 30
0.0
 10
96.05856388657564
 20
11.47285698497901
 30
0.0
 10
96.05856388657564
 20
11.47285698497901
 30
0.0
 10
96.05856388657564
 20
11.47285698497901
 30
0.0
 10
96.12849932492621
 20
11.596880422448
 30
0.0
 10
96.12849932492621
 20
11.596880422448
 30
0.0
 10
96.12849932492621
 20
11.596880422448
 30
0.0
 10
96.19826250850252
 20
11.720903859917
 30
0.0
 10
96.19826250850252
 20
11.720903859917
 30
0.0
 10
96.19826250850252
 20
11.720903859917
 30
0.0
 10
96.26802569207884
 20
11.84475504261173
 30
0.0
 10
96.26802569207884
 20
11.84475504261173
 30
0.0
 10
96.26802569207884
 20
11.84475504261173
 30
0.0
 10
96.35604788172697
 20
11.97721896401958
 30
0.0
 10
96.35604788172697
 20
11.97721896401958
 30
0.0
 10
96.35604788172697
 20
11.97721896401958
 30
0.0
 10
96.4440700713751
 20
12.10951063065318
 30
0.0
 10
96.4440700713751
 20
12.10951063065318
 30
0.0
 10
96.4440700713751
 20
12.10951063065318
 30
0.0
 10
96.53192000624897
 20
12.24197455206103
 30
0.0
 10
96.53192000624897
 20
12.24197455206103
 30
0.0
 10
96.53192000624897
 20
12.24197455206103
 30
0.0
 10
96.6199421958971
 20
12.37443847346889
 30
0.0
 10
96.6199421958971
 20
12.37443847346889
 30
0.0
 10
96.6199421958971
 20
12.37443847346889
 30
0.0
 10
96.70796438554524
 20
12.50690239487675
 30
0.0
 10
96.70796438554524
 20
12.50690239487675
 30
0.0
 10
96.70796438554524
 20
12.50690239487675
 30
0.0
 10
96.79581432041911
 20
12.6393663162846
 30
0.0
 10
96.79581432041911
 20
12.6393663162846
 30
0.0
 10
96.79581432041911
 20
12.6393663162846
 30
0.0
 10
96.88383651006724
 20
12.7716579829182
 30
0.0
 10
96.88383651006724
 20
12.7716579829182
 30
0.0
 10
96.88383651006724
 20
12.7716579829182
 30
0.0
 10
96.97185869971537
 20
12.90412190432605
 30
0.0
 10
96.97185869971537
 20
12.90412190432605
 30
0.0
 10
96.97185869971537
 20
12.90412190432605
 30
0.0
 10
97.07211097833614
 20
12.99248860352271
 30
0.0
 10
97.07211097833614
 20
12.99248860352271
 30
0.0
 10
97.07211097833614
 20
12.99248860352271
 30
0.0
 10
97.17219100218266
 20
13.08102755749363
 30
0.0
 10
97.17219100218266
 20
13.08102755749363
 30
0.0
 10
97.17219100218266
 20
13.08102755749363
 30
0.0
 10
97.27227102602916
 20
13.16956651146455
 30
0.0
 10
97.27227102602916
 20
13.16956651146455
 30
0.0
 10
97.27227102602916
 20
13.16956651146455
 30
0.0
 10
97.37252330464993
 20
13.25810546543547
 30
0.0
 10
97.37252330464993
 20
13.25810546543547
 30
0.0
 10
97.37252330464993
 20
13.25810546543547
 30
0.0
 10
97.4727755832707
 20
13.3466444194064
 30
0.0
 10
97.4727755832707
 20
13.3466444194064
 30
0.0
 10
97.4727755832707
 20
13.3466444194064
 30
0.0
 10
97.5728556071172
 20
13.43518337337732
 30
0.0
 10
97.5728556071172
 20
13.43518337337732
 30
0.0
 10
97.5728556071172
 20
13.43518337337732
 30
0.0
 10
97.67293563096372
 20
13.52372232734824
 30
0.0
 10
97.67293563096372
 20
13.52372232734824
 30
0.0
 10
97.67293563096372
 20
13.52372232734824
 30
0.0
 10
97.77318790958448
 20
13.6120890265449
 30
0.0
 10
97.77318790958448
 20
13.6120890265449
 30
0.0
 10
97.77318790958448
 20
13.6120890265449
 30
0.0
 10
97.87654077414199
 20
13.69769964935335
 30
0.0
 10
97.87654077414199
 20
13.69769964935335
 30
0.0
 10
97.87654077414199
 20
13.69769964935335
 30
0.0
 10
97.97989363869948
 20
13.78348252693607
 30
0.0
 10
97.97989363869948
 20
13.78348252693607
 30
0.0
 10
97.97989363869948
 20
13.78348252693607
 30
0.0
 10
98.08324650325697
 20
13.8692654045188
 30
0.0
 10
98.08324650325697
 20
13.8692654045188
 30
0.0
 10
98.08324650325697
 20
13.8692654045188
 30
0.0
 10
98.18642711304021
 20
13.95504828210152
 30
0.0
 10
98.18642711304021
 20
13.95504828210152
 30
0.0
 10
98.18642711304021
 20
13.95504828210152
 30
0.0
 10
98.28960772282343
 20
14.04083115968424
 30
0.0
 10
98.28960772282343
 20
14.04083115968424
 30
0.0
 10
98.28960772282343
 20
14.04083115968424
 30
0.0
 10
98.39296058738093
 20
14.12661403726696
 30
0.0
 10
98.39296058738093
 20
14.12661403726696
 30
0.0
 10
98.39296058738093
 20
14.12661403726696
 30
0.0
 10
98.49631345193842
 20
14.21239691484968
 30
0.0
 10
98.49631345193842
 20
14.21239691484968
 30
0.0
 10
98.49631345193842
 20
14.21239691484968
 30
0.0
 10
98.59966631649593
 20
14.29800753765814
 30
0.0
 10
98.59966631649593
 20
14.29800753765814
 30
0.0
 10
98.59966631649593
 20
14.29800753765814
 30
0.0
 10
98.59966631649593
 20
14.95860459695479
 30
0.0
 10
98.59966631649593
 20
14.95860459695479
 30
0.0
 10
98.59966631649593
 20
14.95860459695479
 30
0.0
 10
98.59966631649593
 20
15.61937391102571
 30
0.0
 10
98.59966631649593
 20
15.61937391102571
 30
0.0
 10
98.59966631649593
 20
15.61937391102571
 30
0.0
 10
98.59966631649593
 20
16.27997097032237
 30
0.0
 10
98.59966631649593
 20
16.27997097032237
 30
0.0
 10
98.59966631649593
 20
16.27997097032237
 30
0.0
 10
98.59966631649593
 20
16.94056802961903
 30
0.0
 10
98.59966631649593
 20
16.94056802961903
 30
0.0
 10
98.59966631649593
 20
16.94056802961903
 30
0.0
 10
98.59966631649593
 20
17.60116508891568
 30
0.0
 10
98.59966631649593
 20
17.60116508891568
 30
0.0
 10
98.59966631649593
 20
17.60116508891568
 30
0.0
 10
98.59966631649593
 20
18.26176214821234
 30
0.0
 10
98.59966631649593
 20
18.26176214821234
 30
0.0
 10
98.59966631649593
 20
18.26176214821234
 30
0.0
 10
98.59966631649593
 20
18.92253146228326
 30
0.0
 10
98.59966631649593
 20
18.92253146228326
 30
0.0
 10
98.59966631649593
 20
18.92253146228326
 30
0.0
 10
98.59966631649593
 20
19.58312852157991
 30
0.0
 10
98.59966631649593
 20
19.58312852157991
 30
0.0
 10
98.46668563076528
 20
19.58312852157991
 30
0.0
 10
98.33766680484267
 20
19.59639213919813
 30
0.0
 10
98.21381562214793
 20
19.62188584578897
 30
0.0
 10
98.08996443945321
 20
19.64737955237982
 30
0.0
 10
97.97128089998635
 20
19.68475883839479
 30
0.0
 10
97.85862627761868
 20
19.73299017518828
 30
0.0
 10
97.74597165525101
 20
19.78122151198178
 30
0.0
 10
97.63969045953105
 20
19.84030489955381
 30
0.0
 10
97.54064396433012
 20
19.90886229971029
 30
0.0
 10
97.44142521435492
 20
19.97741969986676
 30
0.0
 10
97.34961341967302
 20
20.05545111260767
 30
0.0
 10
97.2660698541557
 20
20.14175075451318
 30
0.0
 10
97.1825262886384
 20
20.22805039641868
 30
0.0
 10
97.1072509522857
 20
20.32261826748879
 30
0.0
 10
97.04144962851743
 20
20.4240763295294
 30
0.0
 10
96.97564830474914
 20
20.52553439157001
 30
0.0
 10
96.91914873879105
 20
20.63405489935538
 30
0.0
 10
96.8729844592887
 20
20.74808755991715
 30
0.0
 10
96.82699243456062
 20
20.86212022047891
 30
0.0
 10
96.79133569628829
 20
20.98200954336561
 30
0.0
 10
96.7673922826658
 20
21.10620523560886
 30
0.0
 10
96.74327661426905
 20
21.23040092785212
 30
0.0
 10
96.73070201574788
 20
21.35890298945194
 30
0.0
 10
96.73070201574788
 20
21.49067789176275
 30
0.0
 10
96.73070201574788
 20
21.62245279407355
 30
0.0
 10
96.74448239768888
 20
21.75095485567337
 30
0.0
 10
96.77066512337679
 20
21.87515054791663
 30
0.0
 10
96.79684784906468
 20
21.99934624015989
 30
0.0
 10
96.83543291849948
 20
22.11923556304658
 30
0.0
 10
96.88487003871282
 20
22.23326822360835
 30
0.0
 10
96.93430715892615
 20
22.34730088417012
 30
0.0
 10
96.99494083946655
 20
22.45582139195549
 30
0.0
 10
97.06504853259138
 20
22.5572794539961
 30
0.0
 10
97.13515622571622
 20
22.65873751603671
 30
0.0
 10
97.21508244097402
 20
22.75330538710681
 30
0.0
 10
97.30310463062214
 20
22.83960502901232
 30
0.0
 10
97.39112682027027
 20
22.92590467091783
 30
0.0
 10
97.48758949385727
 20
23.00393608365874
 30
0.0
 10
97.59077010364051
 20
23.07266573858947
 30
0.0
 10
97.69395071342375
 20
23.14122313874595
 30
0.0
 10
97.80419376895173
 20
23.20030652631798
 30
0.0
 10
97.91977672248187
 20
23.24853786311148
 30
0.0
 10
98.03535967601199
 20
23.29676919990498
 30
0.0
 10
98.15662703709279
 20
23.3343207406942
 30
0.0
 10
98.28185625798163
 20
23.35981444728505
 30
0.0
 10
98.40708547887046
 20
23.3853081538759
 30
0.0
 10
98.53662106911585
 20
23.39857177149411
 30
0.0
 10
98.66891273574944
 20
23.39857177149411
 30
0.0
 10
98.66891273574944
 20
23.39857177149411
 30
0.0
 10
98.6654676402642
 20
26.4672905749804
 30
0.0
 10
98.6654676402642
 20
26.4672905749804
 30
0.0
 10
98.6654676402642
 20
26.4672905749804
 30
0.0
 10
98.66202254477895
 20
29.53618163324096
 30
0.0
 10
98.66202254477895
 20
29.53618163324096
 30
0.0
 10
98.66202254477895
 20
29.53618163324096
 30
0.0
 10
98.65857744929369
 20
32.60490043672725
 30
0.0
 10
98.65857744929369
 20
32.60490043672725
 30
0.0
 10
98.65857744929369
 20
32.60490043672725
 30
0.0
 10
98.65496009903418
 20
35.67361924021354
 30
0.0
 10
98.65496009903418
 20
35.67361924021354
 30
0.0
 10
98.65496009903418
 20
35.67361924021354
 30
0.0
 10
98.65134274877467
 20
38.74233804369983
 30
0.0
 10
98.65134274877467
 20
38.74233804369983
 30
0.0
 10
98.65134274877467
 20
38.74233804369983
 30
0.0
 10
98.64789765328942
 20
41.81105684718613
 30
0.0
 10
98.64789765328942
 20
41.81105684718613
 30
0.0
 10
98.64789765328942
 20
41.81105684718613
 30
0.0
 10
98.64445255780417
 20
44.87994790544668
 30
0.0
 10
98.64445255780417
 20
44.87994790544668
 30
0.0
 10
98.64445255780417
 20
44.87994790544668
 30
0.0
 10
98.64100746231892
 20
47.94866670893298
 30
0.0
 10
98.64100746231892
 20
47.94866670893298
 30
0.0
 10
98.50871579568532
 20
47.94866670893298
 30
0.0
 10
98.37935246021419
 20
47.96193032655118
 30
0.0
 10
98.25412323932537
 20
47.98742403314203
 30
0.0
 10
98.12889401843653
 20
48.01291773973288
 30
0.0
 10
98.00779891213
 20
48.05029702574785
 30
0.0
 10
97.89238821337413
 20
48.09852836254134
 30
0.0
 10
97.776805259844
 20
48.1469319541091
 30
0.0
 10
97.66673445909026
 20
48.20584308690687
 30
0.0
 10
97.5637261040813
 20
48.27440048706335
 30
0.0
 10
97.46054549429806
 20
48.34295788721982
 30
0.0
 10
97.36425507548533
 20
48.42116155473499
 30
0.0
 10
97.27640514061146
 20
48.5074611966405
 30
0.0
 10
97.18855520573759
 20
48.593760838546
 30
0.0
 10
97.10880124525406
 20
48.68832870961612
 30
0.0
 10
97.03869355212922
 20
48.78978677165672
 30
0.0
 10
96.96875811377865
 20
48.89124483369733
 30
0.0
 10
96.90829668801251
 20
48.99959308670844
 30
0.0
 10
96.85885956779917
 20
49.11379800204447
 30
0.0
 10
96.80942244758585
 20
49.2280029173805
 30
0.0
 10
96.77100963292531
 20
49.34771998549294
 30
0.0
 10
96.74499916201167
 20
49.47191567773619
 30
0.0
 10
96.71898869109803
 20
49.59628362475371
 30
0.0
 10
96.70520830915703
 20
49.72478568635353
 30
0.0
 10
96.70520830915703
 20
49.85656058866434
 30
0.0
 10
96.70520830915703
 20
49.98833549097514
 30
0.0
 10
96.71812741722673
 20
50.11683755257496
 30
0.0
 10
96.74293210472052
 20
50.24103324481822
 30
0.0
 10
96.76773679221432
 20
50.36522893706147
 30
0.0
 10
96.80442705913224
 20
50.48511825994817
 30
0.0
 10
96.85162486728015
 20
50.59915092050993
 30
0.0
 10
96.89882267542808
 20
50.7131835810717
 30
0.0
 10
96.95670027958028
 20
50.82170408885708
 30
0.0
 10
97.0240518963169
 20
50.92316215089768
 30
0.0
 10
97.09140351305355
 20
51.0246202129383
 30
0.0
 10
97.16822914237461
 20
51.1191880840084
 30
0.0
 10
97.25332300086029
 20
51.2054877259139
 30
0.0
 10
97.33841685934595
 20
51.29178736781942
 30
0.0
 10
97.43195120177049
 20
51.36981878056032
 30
0.0
 10
97.53254798993979
 20
51.43837618071679
 30
0.0
 10
97.63331703288334
 20
51.50693358087327
 30
0.0
 10
97.7409762667974
 20
51.5660169684453
 30
0.0
 10
97.85466441781064
 20
51.6142483052388
 30
0.0
 10
97.96852482359814
 20
51.6624796420323
 30
0.0
 10
98.08824189171058
 20
51.69985892804726
 30
0.0
 10
98.21278209350237
 20
51.72535263463811
 30
0.0
 10
98.33732229529414
 20
51.75084634122896
 30
0.0
 10
98.46668563076528
 20
51.76410995884717
 30
0.0
 10
98.59966631649593
 20
51.76410995884717
 30
0.0
 10
98.59966631649593
 20
51.76410995884717
 30
0.0
 10
98.59966631649593
 20
54.82008190903804
 30
0.0
 10
98.59966631649593
 20
54.82008190903804
 30
0.0
 10
98.59966631649593
 20
54.82008190903804
 30
0.0
 10
98.59966631649593
 20
57.87622611400317
 30
0.0
 10
98.59966631649593
 20
57.87622611400317
 30
0.0
 10
98.59966631649593
 20
57.87622611400317
 30
0.0
 10
98.59966631649593
 20
60.93219806419404
 30
0.0
 10
98.59966631649593
 20
60.93219806419404
 30
0.0
 10
98.59966631649593
 20
60.93219806419404
 30
0.0
 10
98.59966631649593
 20
63.98817001438491
 30
0.0
 10
98.59966631649593
 20
63.98817001438491
 30
0.0
 10
98.59966631649593
 20
63.98817001438491
 30
0.0
 10
98.59966631649593
 20
67.04414196457577
 30
0.0
 10
98.59966631649593
 20
67.04414196457577
 30
0.0
 10
98.59966631649593
 20
67.04414196457577
 30
0.0
 10
98.59966631649593
 20
70.10011391476664
 30
0.0
 10
98.59966631649593
 20
70.10011391476664
 30
0.0
 10
98.59966631649593
 20
70.10011391476664
 30
0.0
 10
98.59966631649593
 20
73.15625811973177
 30
0.0
 10
98.59966631649593
 20
73.15625811973177
 30
0.0
 10
98.59966631649593
 20
73.15625811973177
 30
0.0
 10
98.59966631649593
 20
76.21223006992264
 30
0.0
 10
98.59966631649593
 20
76.21223006992264
 30
0.0
 10
98.46668563076528
 20
76.21223006992264
 30
0.0
 10
98.33732229529414
 20
76.22549368754085
 30
0.0
 10
98.21278209350237
 20
76.2509873941317
 30
0.0
 10
98.08824189171058
 20
76.27648110072255
 30
0.0
 10
97.96852482359814
 20
76.31386038673752
 30
0.0
 10
97.85466441781064
 20
76.36209172353101
 30
0.0
 10
97.7409762667974
 20
76.4103230603245
 30
0.0
 10
97.63331703288334
 20
76.46940644789655
 30
0.0
 10
97.53254798993979
 20
76.53796384805301
 30
0.0
 10
97.43195120177049
 20
76.60652124820949
 30
0.0
 10
97.33841685934595
 20
76.68455266095039
 30
0.0
 10
97.25332300086029
 20
76.7708523028559
 30
0.0
 10
97.16822914237461
 20
76.85715194476141
 30
0.0
 10
97.09140351305355
 20
76.95171981583152
 30
0.0
 10
97.0240518963169
 20
77.05300562309786
 30
0.0
 10
96.95670027958028
 20
77.15446368513847
 30
0.0
 10
96.89882267542808
 20
77.26281193814958
 30
0.0
 10
96.85162486728015
 20
77.37701685348561
 30
0.0
 10
96.80442705913224
 20
77.49122176882165
 30
0.0
 10
96.76773679221432
 20
77.61093883693407
 30
0.0
 10
96.74293210472052
 20
77.73513452917733
 30
0.0
 10
96.71812741722673
 20
77.85933022142059
 30
0.0
 10
96.70520830915703
 20
77.98800453779467
 30
0.0
 10
96.70520830915703
 20
78.11960718533122
 30
0.0
 10
96.70520830915703
 20
78.25120983286776
 30
0.0
 10
96.71812741722673
 20
78.37988414924183
 30
0.0
 10
96.74293210472052
 20
78.5040798414851
 30
0.0
 10
96.76773679221432
 20
78.62827553372836
 30
0.0
 10
96.80442705913224
 20
78.74799260184078
 30
0.0
 10
96.85162486728015
 20
78.86219751717681
 30
0.0
 10
96.89882267542808
 20
78.97640243251284
 30
0.0
 10
96.95670027958028
 20
79.08475068552396
 30
0.0
 10
97.0240518963169
 20
79.18620874756456
 30
0.0
 10
97.09140351305355
 20
79.28766680960517
 30
0.0
 10
97.16822914237461
 20
79.38223468067528
 30
0.0
 10
97.25332300086029
 20
79.46853432258078
 30
0.0
 10
97.33841685934595
 20
79.55483396448629
 30
0.0
 10
97.43195120177049
 20
79.6328653772272
 30
0.0
 10
97.53254798993979
 20
79.70142277738367
 30
0.0
 10
97.63331703288334
 20
79.76998017754015
 30
0.0
 10
97.7409762667974
 20
79.82906356511218
 30
0.0
 10
97.85466441781064
 20
79.87729490190569
 30
0.0
 10
97.96852482359814
 20
79.92552623869918
 30
0.0
 10
98.08824189171058
 20
79.9630777794884
 30
0.0
 10
98.21278209350237
 20
79.98839923130498
 30
0.0
 10
98.33732229529414
 20
80.01372068312158
 30
0.0
 10
98.46668563076528
 20
80.02715655551405
 30
0.0
 10
98.59966631649593
 20
80.02715655551405
 30
0.0
 10
98.59966631649593
 20
80.02715655551405
 30
0.0
 10
98.59966631649593
 20
80.68310273590562
 30
0.0
 10
98.59966631649593
 20
80.68310273590562
 30
0.0
 10
98.59966631649593
 20
80.68310273590562
 30
0.0
 10
98.59966631649593
 20
81.33904891629719
 30
0.0
 10
98.59966631649593
 20
81.33904891629719
 30
0.0
 10
98.59966631649593
 20
81.33904891629719
 30
0.0
 10
98.59966631649593
 20
81.99499509668875
 30
0.0
 10
98.59966631649593
 20
81.99499509668875
 30
0.0
 10
98.59966631649593
 20
81.99499509668875
 30
0.0
 10
98.59966631649593
 20
82.65094127708032
 30
0.0
 10
98.59966631649593
 20
82.65094127708032
 30
0.0
 10
98.59966631649593
 20
82.65094127708032
 30
0.0
 10
98.59966631649593
 20
83.30688745747189
 30
0.0
 10
98.59966631649593
 20
83.30688745747189
 30
0.0
 10
98.59966631649593
 20
83.30688745747189
 30
0.0
 10
98.59966631649593
 20
83.96283363786347
 30
0.0
 10
98.59966631649593
 20
83.96283363786347
 30
0.0
 10
98.59966631649593
 20
83.96283363786347
 30
0.0
 10
98.59966631649593
 20
84.61877981825504
 30
0.0
 10
98.59966631649593
 20
84.61877981825504
 30
0.0
 10
98.59966631649593
 20
84.61877981825504
 30
0.0
 10
98.59966631649593
 20
85.27489825342086
 30
0.0
 10
98.59966631649593
 20
85.27489825342086
 30
0.0
 10
98.59966631649593
 20
85.27489825342086
 30
0.0
 10
98.5019978594891
 20
85.35155162796767
 30
0.0
 10
98.5019978594891
 20
85.35155162796767
 30
0.0
 10
98.5019978594891
 20
85.35155162796767
 30
0.0
 10
98.40432940248226
 20
85.42803274774022
 30
0.0
 10
98.40432940248226
 20
85.42803274774022
 30
0.0
 10
98.40432940248226
 20
85.42803274774022
 30
0.0
 10
98.30648869070116
 20
85.50451386751277
 30
0.0
 10
98.30648869070116
 20
85.50451386751277
 30
0.0
 10
98.30648869070116
 20
85.50451386751277
 30
0.0
 10
98.20882023369433
 20
85.58099498728531
 30
0.0
 10
98.20882023369433
 20
85.58099498728531
 30
0.0
 10
98.20882023369433
 20
85.58099498728531
 30
0.0
 10
98.11115177668749
 20
85.65747610705786
 30
0.0
 10
98.11115177668749
 20
85.65747610705786
 30
0.0
 10
98.11115177668749
 20
85.65747610705786
 30
0.0
 10
98.0133110649064
 20
85.73412948160467
 30
0.0
 10
98.0133110649064
 20
85.73412948160467
 30
0.0
 10
98.0133110649064
 20
85.73412948160467
 30
0.0
 10
97.91564260789957
 20
85.81078285615148
 30
0.0
 10
97.91564260789957
 20
85.81078285615148
 30
0.0
 10
97.91564260789957
 20
85.81078285615148
 30
0.0
 10
97.81797415089274
 20
85.88726397592401
 30
0.0
 10
97.81797415089274
 20
85.88726397592401
 30
0.0
 10
97.81797415089274
 20
85.88726397592401
 30
0.0
 10
97.71169295517278
 20
85.99337291686972
 30
0.0
 10
97.71169295517278
 20
85.99337291686972
 30
0.0
 10
97.71169295517278
 20
85.99337291686972
 30
0.0
 10
97.60541175945282
 20
86.09930960304115
 30
0.0
 10
97.60541175945282
 20
86.09930960304115
 30
0.0
 10
97.60541175945282
 20
86.09930960304115
 30
0.0
 10
97.49895830895859
 20
86.20524628921258
 30
0.0
 10
97.49895830895859
 20
86.20524628921258
 30
0.0
 10
97.49895830895859
 20
86.20524628921258
 30
0.0
 10
97.39267711323865
 20
86.31135523015827
 30
0.0
 10
97.39267711323865
 20
86.31135523015827
 30
0.0
 10
97.39267711323865
 20
86.31135523015827
 30
0.0
 10
97.28639591751869
 20
86.41746417110397
 30
0.0
 10
97.28639591751869
 20
86.41746417110397
 30
0.0
 10
97.28639591751869
 20
86.41746417110397
 30
0.0
 10
97.17994246702446
 20
86.52357311204966
 30
0.0
 10
97.17994246702446
 20
86.52357311204966
 30
0.0
 10
97.17994246702446
 20
86.52357311204966
 30
0.0
 10
97.0736612713045
 20
86.62968205299536
 30
0.0
 10
97.0736612713045
 20
86.62968205299536
 30
0.0
 10
97.0736612713045
 20
86.62968205299536
 30
0.0
 10
96.96738007558454
 20
86.7356187391668
 30
0.0
 10
96.96738007558454
 20
86.7356187391668
 30
0.0
 10
96.96738007558454
 20
86.7356187391668
 30
0.0
 10
96.87884112161363
 20
86.85051267359988
 30
0.0
 10
96.87884112161363
 20
86.85051267359988
 30
0.0
 10
96.87884112161363
 20
86.85051267359988
 30
0.0
 10
96.79030216764271
 20
86.96557886280722
 30
0.0
 10
96.79030216764271
 20
86.96557886280722
 30
0.0
 10
96.79030216764271
 20
86.96557886280722
 30
0.0
 10
96.70176321367178
 20
87.0804727972403
 30
0.0
 10
96.70176321367178
 20
87.0804727972403
 30
0.0
 10
96.70176321367178
 20
87.0804727972403
 30
0.0
 10
96.61339651447513
 20
87.19536673167339
 30
0.0
 10
96.61339651447513
 20
87.19536673167339
 30
0.0
 10
96.61339651447513
 20
87.19536673167339
 30
0.0
 10
96.52502981527847
 20
87.31026066610647
 30
0.0
 10
96.52502981527847
 20
87.31026066610647
 30
0.0
 10
96.52502981527847
 20
87.31026066610647
 30
0.0
 10
96.43649086130755
 20
87.42515460053954
 30
0.0
 10
96.43649086130755
 20
87.42515460053954
 30
0.0
 10
96.43649086130755
 20
87.42515460053954
 30
0.0
 10
96.34795190733662
 20
87.5402207897469
 30
0.0
 10
96.34795190733662
 20
87.5402207897469
 30
0.0
 10
96.34795190733662
 20
87.5402207897469
 30
0.0
 10
96.25941295336571
 20
87.65511472417998
 30
0.0
 10
96.25941295336571
 20
87.65511472417998
 30
0.0
 10
96.25941295336571
 20
87.65511472417998
 30
0.0
 10
96.18844398636956
 20
87.7789659068747
 30
0.0
 10
96.18844398636956
 20
87.7789659068747
 30
0.0
 10
96.18844398636956
 20
87.7789659068747
 30
0.0
 10
96.11764727414767
 20
87.9029893443437
 30
0.0
 10
96.11764727414767
 20
87.9029893443437
 30
0.0
 10
96.11764727414767
 20
87.9029893443437
 30
0.0
 10
96.0468505619258
 20
88.02684052703843
 30
0.0
 10
96.0468505619258
 20
88.02684052703843
 30
0.0
 10
96.0468505619258
 20
88.02684052703843
 30
0.0
 10
95.97588159492965
 20
88.15069170973317
 30
0.0
 10
95.97588159492965
 20
88.15069170973317
 30
0.0
 10
95.97588159492965
 20
88.15069170973317
 30
0.0
 10
95.9049126279335
 20
88.27471514720216
 30
0.0
 10
95.9049126279335
 20
88.27471514720216
 30
0.0
 10
95.9049126279335
 20
88.27471514720216
 30
0.0
 10
95.83411591571162
 20
88.3985663298969
 30
0.0
 10
95.83411591571162
 20
88.3985663298969
 30
0.0
 10
95.83411591571162
 20
88.3985663298969
 30
0.0
 10
95.76331920348973
 20
88.52241751259162
 30
0.0
 10
95.76331920348973
 20
88.52241751259162
 30
0.0
 10
95.76331920348973
 20
88.52241751259162
 30
0.0
 10
95.69235023649358
 20
88.64644095006062
 30
0.0
 10
95.69235023649358
 20
88.64644095006062
 30
0.0
 10
95.69235023649358
 20
88.64644095006062
 30
0.0
 10
95.63912351124647
 20
88.78768986495587
 30
0.0
 10
95.63912351124647
 20
88.78768986495587
 30
0.0
 10
95.63912351124647
 20
88.78768986495587
 30
0.0
 10
95.58589678599937
 20
88.92893877985111
 30
0.0
 10
95.58589678599937
 20
88.92893877985111
 30
0.0
 10
95.58589678599937
 20
88.92893877985111
 30
0.0
 10
95.53284231552652
 20
89.07018769474635
 30
0.0
 10
95.53284231552652
 20
89.07018769474635
 30
0.0
 10
95.53284231552652
 20
89.07018769474635
 30
0.0
 10
95.47961559027941
 20
89.21160886441585
 30
0.0
 10
95.47961559027941
 20
89.21160886441585
 30
0.0
 10
95.47961559027941
 20
89.21160886441585
 30
0.0
 10
95.4263888650323
 20
89.35303003408536
 30
0.0
 10
95.4263888650323
 20
89.35303003408536
 30
0.0
 10
95.4263888650323
 20
89.35303003408536
 30
0.0
 10
95.37333439455945
 20
89.49427894898061
 30
0.0
 10
95.37333439455945
 20
89.49427894898061
 30
0.0
 10
95.37333439455945
 20
89.49427894898061
 30
0.0
 10
95.32010766931234
 20
89.63552786387585
 30
0.0
 10
95.32010766931234
 20
89.63552786387585
 30
0.0
 10
95.32010766931234
 20
89.63552786387585
 30
0.0
 10
95.26688094406524
 20
89.7767767787711
 30
0.0
 10
95.26688094406524
 20
89.7767767787711
 30
0.0
 10
95.26688094406524
 20
89.7767767787711
 30
0.0
 10
95.2403537088288
 20
89.92715519670224
 30
0.0
 10
95.2403537088288
 20
89.92715519670224
 30
0.0
 10
95.2403537088288
 20
89.92715519670224
 30
0.0
 10
95.21382647359238
 20
90.0775336146334
 30
0.0
 10
95.21382647359238
 20
90.0775336146334
 30
0.0
 10
95.21382647359238
 20
90.0775336146334
 30
0.0
 10
95.18729923835596
 20
90.22791203256456
 30
0.0
 10
95.18729923835596
 20
90.22791203256456
 30
0.0
 10
95.18729923835596
 20
90.22791203256456
 30
0.0
 10
95.16059974834528
 20
90.37829045049571
 30
0.0
 10
95.16059974834528
 20
90.37829045049571
 30
0.0
 10
95.16059974834528
 20
90.37829045049571
 30
0.0
 10
95.13390025833459
 20
90.52866886842686
 30
0.0
 10
95.13390025833459
 20
90.52866886842686
 30
0.0
 10
95.13390025833459
 20
90.52866886842686
 30
0.0
 10
95.10737302309816
 20
90.67904728635801
 30
0.0
 10
95.10737302309816
 20
90.67904728635801
 30
0.0
 10
95.10737302309816
 20
90.67904728635801
 30
0.0
 10
95.08084578786173
 20
90.82942570428918
 30
0.0
 10
95.08084578786173
 20
90.82942570428918
 30
0.0
 10
95.08084578786173
 20
90.82942570428918
 30
0.0
 10
95.05431855262532
 20
90.97980412222033
 30
0.0
 10
95.05431855262532
 20
90.97980412222033
 30
0.0
 10
95.05431855262532
 20
90.97980412222033
 30
0.0
 10
95.05414629785105
 20
91.12122529188984
 30
0.0
 10
95.05414629785105
 20
91.12122529188984
 30
0.0
 10
95.05414629785105
 20
91.12122529188984
 30
0.0
 10
95.05397404307679
 20
91.26264646155934
 30
0.0
 10
95.05397404307679
 20
91.26264646155934
 30
0.0
 10
95.05397404307679
 20
91.26264646155934
 30
0.0
 10
95.05380178830252
 20
91.40406763122886
 30
0.0
 10
95.05380178830252
 20
91.40406763122886
 30
0.0
 10
95.05380178830252
 20
91.40406763122886
 30
0.0
 10
95.05362953352827
 20
91.54548880089835
 30
0.0
 10
95.05362953352827
 20
91.54548880089835
 30
0.0
 10
95.05362953352827
 20
91.54548880089835
 30
0.0
 10
95.053457278754
 20
91.68690997056785
 30
0.0
 10
95.053457278754
 20
91.68690997056785
 30
0.0
 10
95.053457278754
 20
91.68690997056785
 30
0.0
 10
95.05328502397974
 20
91.82833114023737
 30
0.0
 10
95.05328502397974
 20
91.82833114023737
 30
0.0
 10
95.05328502397974
 20
91.82833114023737
 30
0.0
 10
95.05311276920547
 20
91.96958005513261
 30
0.0
 10
95.05311276920547
 20
91.96958005513261
 30
0.0
 10
95.05311276920547
 20
91.96958005513261
 30
0.0
 10
95.05294051443121
 20
92.11100122480211
 30
0.0
 10
95.05294051443121
 20
92.11100122480211
 30
0.0
 10
95.05294051443121
 20
92.11100122480211
 30
0.0
 10
95.05294051443121
 20
93.09715980745489
 30
0.0
 10
95.05294051443121
 20
93.09715980745489
 30
0.0
 10
95.05294051443121
 20
93.09715980745489
 30
0.0
 10
95.05294051443121
 20
94.08314613533338
 30
0.0
 10
95.05294051443121
 20
94.08314613533338
 30
0.0
 10
95.05294051443121
 20
94.08314613533338
 30
0.0
 10
95.05294051443121
 20
95.06913246321189
 30
0.0
 10
95.05294051443121
 20
95.06913246321189
 30
0.0
 10
95.05294051443121
 20
95.06913246321189
 30
0.0
 10
95.05294051443121
 20
96.05529104586465
 30
0.0
 10
95.05294051443121
 20
96.05529104586465
 30
0.0
 10
95.05294051443121
 20
96.05529104586465
 30
0.0
 10
95.05294051443121
 20
97.04144962851743
 30
0.0
 10
95.05294051443121
 20
97.04144962851743
 30
0.0
 10
95.05294051443121
 20
97.04144962851743
 30
0.0
 10
95.05294051443121
 20
98.02743595639592
 30
0.0
 10
95.05294051443121
 20
98.02743595639592
 30
0.0
 10
95.05294051443121
 20
98.02743595639592
 30
0.0
 10
95.05294051443121
 20
99.01342228427443
 30
0.0
 10
95.05294051443121
 20
99.01342228427443
 30
0.0
 10
95.05294051443121
 20
99.01342228427443
 30
0.0
 10
95.05294051443121
 20
99.99958086692719
 30
0.0
 10
95.05294051443121
 20
99.99958086692719
 30
0.0
 10
95.05294051443121
 20
99.99958086692719
 30
0.0
 10
89.57902829791774
 20
99.99958086692719
 30
0.0
 10
89.57902829791774
 20
99.99958086692719
 30
0.0
 10
89.57902829791774
 20
99.99958086692719
 30
0.0
 10
84.10511608140428
 20
99.99958086692719
 30
0.0
 10
84.10511608140428
 20
99.99958086692719
 30
0.0
 10
84.10511608140428
 20
99.99958086692719
 30
0.0
 10
78.63120386489081
 20
99.99958086692719
 30
0.0
 10
78.63120386489081
 20
99.99958086692719
 30
0.0
 10
78.63120386489081
 20
99.99958086692719
 30
0.0
 10
73.15729164837735
 20
99.99958086692719
 30
0.0
 10
73.15729164837735
 20
99.99958086692719
 30
0.0
 10
73.15729164837735
 20
99.99958086692719
 30
0.0
 10
67.68337943186388
 20
99.99958086692719
 30
0.0
 10
67.68337943186388
 20
99.99958086692719
 30
0.0
 10
67.68337943186388
 20
99.99958086692719
 30
0.0
 10
62.20946721535041
 20
99.99958086692719
 30
0.0
 10
62.20946721535041
 20
99.99958086692719
 30
0.0
 10
62.20946721535041
 20
99.99958086692719
 30
0.0
 10
56.73555499883695
 20
99.99958086692719
 30
0.0
 10
56.73555499883695
 20
99.99958086692719
 30
0.0
 10
56.73555499883695
 20
99.99958086692719
 30
0.0
 10
51.26164278232348
 20
99.99958086692719
 30
0.0
 10
51.26164278232348
 20
99.99958086692719
 30
0.0
 10
51.26164278232348
 20
99.86780596461638
 30
0.0
 10
51.24820690993101
 20
99.73964841256509
 30
0.0
 10
51.22254094856589
 20
99.61614173941888
 30
0.0
 10
51.19687498720079
 20
99.49263506627268
 30
0.0
 10
51.15897893686304
 20
99.37377927203156
 30
0.0
 10
51.11040309052101
 20
99.26078014011536
 30
0.0
 10
51.06182724417899
 20
99.14778100819917
 30
0.0
 10
51.00222709228417
 20
99.0406385386079
 30
0.0
 10
50.93315292780491
 20
98.94073076953566
 30
0.0
 10
50.86407876332565
 20
98.84065074568915
 30
0.0
 10
50.78553058626196
 20
98.7476331675874
 30
0.0
 10
50.69854192525939
 20
98.66288381865026
 30
0.0
 10
50.61155326425683
 20
98.57796221493885
 30
0.0
 10
50.51646862886394
 20
98.5014810951663
 30
0.0
 10
50.41432154772628
 20
98.43430173320392
 30
0.0
 10
50.31217446658862
 20
98.36712237124156
 30
0.0
 10
50.20296493970621
 20
98.30958927663788
 30
0.0
 10
50.08824326004738
 20
98.26239146848997
 30
0.0
 10
49.97352158038856
 20
98.21519366034204
 30
0.0
 10
49.85294323840482
 20
98.17867564819839
 30
0.0
 10
49.72823078183877
 20
98.15404321547885
 30
0.0
 10
49.60334607049847
 20
98.12923852798505
 30
0.0
 10
49.47432724457587
 20
98.11631941991537
 30
0.0
 10
49.34203557794227
 20
98.11631941991537
 30
0.0
 10
49.20974391130868
 20
98.11631941991537
 30
0.0
 10
49.08055283061181
 20
98.12923852798505
 30
0.0
 10
48.95584037404576
 20
98.15404321547885
 30
0.0
 10
48.83095566270546
 20
98.17867564819839
 30
0.0
 10
48.71054957549597
 20
98.21519366034204
 30
0.0
 10
48.59565564106289
 20
98.26239146848997
 30
0.0
 10
48.48076170662981
 20
98.30958927663788
 30
0.0
 10
48.37172443452165
 20
98.36712237124156
 30
0.0
 10
48.26940509860973
 20
98.43430173320392
 30
0.0
 10
48.16725801747208
 20
98.5014810951663
 30
0.0
 10
48.07200112730492
 20
98.57796221493885
 30
0.0
 10
47.98501246630236
 20
98.66288381865026
 30
0.0
 10
47.8980238052998
 20
98.7476331675874
 30
0.0
 10
47.81930337346184
 20
98.84065074568915
 30
0.0
 10
47.75005695420832
 20
98.94073076953566
 30
0.0
 10
47.68098278972906
 20
99.0406385386079
 30
0.0
 10
47.62138263783424
 20
99.14778100819917
 30
0.0
 10
47.57263453671796
 20
99.26078014011536
 30
0.0
 10
47.52388643560167
 20
99.37377927203156
 30
0.0
 10
47.48599038526392
 20
99.49263506627268
 30
0.0
 10
47.46032442389881
 20
99.61614173941888
 30
0.0
 10
47.4346584625337
 20
99.73964841256509
 30
0.0
 10
47.42122259014123
 20
99.86780596461638
 30
0.0
 10
47.42122259014123
 20
99.99958086692719
 30
0.0
 10
47.42122259014123
 20
99.99958086692719
 30
0.0
 10
41.93680283239775
 20
99.99958086692719
 30
0.0
 10
41.93680283239775
 20
99.99958086692719
 30
0.0
 10
41.93680283239775
 20
99.99958086692719
 30
0.0
 10
36.45255532942853
 20
99.99958086692719
 30
0.0
 10
36.45255532942853
 20
99.99958086692719
 30
0.0
 10
36.45255532942853
 20
99.99958086692719
 30
0.0
 10
30.96830782645931
 20
99.99958086692719
 30
0.0
 10
30.96830782645931
 20
99.99958086692719
 30
0.0
 10
30.96830782645931
 20
99.99958086692719
 30
0.0
 10
25.4840603234901
 20
99.99958086692719
 30
0.0
 10
25.4840603234901
 20
99.99958086692719
 30
0.0
 10
25.4840603234901
 20
99.99958086692719
 30
0.0
 10
19.99981282052088
 20
99.99958086692719
 30
0.0
 10
19.99981282052088
 20
99.99958086692719
 30
0.0
 10
19.99981282052088
 20
99.99958086692719
 30
0.0
 10
14.51556531755167
 20
99.99958086692719
 30
0.0
 10
14.51556531755167
 20
99.99958086692719
 30
0.0
 10
14.51556531755167
 20
99.99958086692719
 30
0.0
 10
9.031317814582449
 20
99.99958086692719
 30
0.0
 10
9.031317814582449
 20
99.99958086692719
 30
0.0
 10
9.031317814582449
 20
99.99958086692719
 30
0.0
 10
3.54689805683897
 20
99.99958086692719
 30
0.0
 10
3.54689805683897
 20
99.99958086692719
 30
0.0
  0
ENDSEC
  0
SECTION
  2
OBJECTS
  0
DICTIONARY
  5
C
330
0
100
AcDbDictionary
  3
ACAD_GROUP
350
D
  3
ACAD_LAYOUT
350
1A
  3
ACAD_MLINESTYLE
350
17
  3
ACAD_PLOTSETTINGS
350
19
  3
ACAD_TABLESTYLE
350
3D
  3
ACAD_VISUALSTYLE
350
2A
1001
ACAD
1000
TREAT_AS_HARD
1070
     0
  0
DICTIONARY
  5
D
102
{ACAD_REACTORS
330
C
102
}
330
C
100
AcDbDictionary
1001
ACAD
1000
TREAT_AS_HARD
1070
     0
  0
DICTIONARY
  5
1A
102
{ACAD_REACTORS
330
C
102
}
330
C
100
AcDbDictionary
1001
ACAD
1000
TREAT_AS_HARD
1070
     0
  0
DICTIONARY
  5
17
102
{ACAD_REACTORS
330
C
102
}
330
C
100
AcDbDictionary
  3
STANDARD
350
18
1001
ACAD
1000
TREAT_AS_HARD
1070
     0
  0
DICTIONARY
  5
19
102
{ACAD_REACTORS
330
C
102
}
330
C
100
AcDbDictionary
1001
ACAD
1000
TREAT_AS_HARD
1070
     0
  0
DICTIONARY
  5
3D
102
{ACAD_REACTORS
330
C
102
}
330
C
100
AcDbDictionary
1001
ACAD
1000
TREAT_AS_HARD
1070
     0
  0
DICTIONARY
  5
2A
102
{ACAD_REACTORS
330
C
102
}
330
C
100
AcDbDictionary
  3
2DWIREFRAME
350
2F
  3
3D_HIDDEN
350
31
  3
3DWIREFRAME
350
30
  3
BASIC
350
32
  3
BRIGHTEN
350
36
  3
COLORCHANGE
350
3A
  3
CONCEPTUAL
350
34
  3
DIM
350
35
  3
FACEPATTERN
350
39
  3
FLAT
350
2B
  3
FLATWITHEDGES
350
2C
  3
GOURAUD
350
2D
  3
GOURAUDWITHEDGES
350
2E
  3
LINEPATTERN
350
38
  3
REALISTIC
350
33
  3
THICKEN
350
37
1001
ACAD
1000
TREAT_AS_HARD
1070
     0
  0
MLINESTYLE
  5
18
102
{ACAD_REACTORS
330
17
102
}
330
17
100
AcDbMlineStyle
  2
Standard
 70
     0
  3

 62
   256
 51
90.0
 52
90.0
 71
     2
 49
0.5
 62
   256
  6
BYLAYER
 49
-0.5
 62
   256
  6
BYLAYER
  0
VISUALSTYLE
  5
2F
102
{ACAD_REACTORS
330
2A
102
}
330
2A
100
AcDbVisualStyle
  2
2dWireframe
 70
     4
 71
     0
 72
     2
 73
     0
 90
        0
 40
-0.6
 41
-30.0
 62
     5
 63
     7
 74
     1
 91
        4
 64
     7
 65
   257
 75
     1
175
     1
 42
1.0
 92
        0
 66
   257
 43
1.0
 76
     1
 77
     6
 78
     2
 67
     7
 79
     5
170
     0
171
     0
290
     0
174
     0
 93
        1
 44
0.0
173
     0
291
     0
 45
0.0
1001
ACAD
1000
AcDbSavedByObjectVersion
1070
     0
  0
VISUALSTYLE
  5
31
102
{ACAD_REACTORS
330
2A
102
}
330
2A
100
AcDbVisualStyle
  2
3D Hidden
 70
     6
 71
     1
 72
     2
 73
     2
 90
        0
 40
-0.6
 41
-30.0
 62
     5
 63
     7
 74
     2
 91
        2
 64
     7
 65
   257
 75
     2
175
     1
 42
40.0
 92
        0
 66
   257
 43
1.0
 76
     1
 77
     6
 78
     2
 67
     7
 79
     3
170
     0
171
     0
290
     0
174
     0
 93
        1
 44
0.0
173
     0
291
     0
 45
0.0
1001
ACAD
1000
AcDbSavedByObjectVersion
1070
     0
  0
VISUALSTYLE
  5
30
102
{ACAD_REACTORS
330
2A
102
}
330
2A
100
AcDbVisualStyle
  2
3dWireframe
 70
     5
 71
     0
 72
     2
 73
     0
 90
        0
 40
-0.6
 41
-30.0
 62
     5
 63
     7
 74
     1
 91
        4
 64
     7
 65
   257
 75
     1
175
     1
 42
1.0
 92
        0
 66
   257
 43
1.0
 76
     1
 77
     6
 78
     2
 67
     7
 79
     5
170
     0
171
     0
290
     0
174
     0
 93
        1
 44
0.0
173
     0
291
     0
 45
0.0
1001
ACAD
1000
AcDbSavedByObjectVersion
1070
     0
  0
VISUALSTYLE
  5
32
102
{ACAD_REACTORS
330
2A
102
}
330
2A
100
AcDbVisualStyle
  2
Basic
 70
     7
 71
     1
 72
     0
 73
     1
 90
        0
 40
-0.6
 41
-30.0
 62
     5
 63
     7
 74
     0
 91
        4
 64
     7
 65
   257
 75
     1
175
     1
 42
1.0
 92
        8
 66
     7
 43
1.0
 76
     1
 77
     6
 78
     2
 67
     7
 79
     5
170
     0
171
     0
290
     0
174
     0
 93
        1
 44
0.0
173
     0
291
     1
 45
0.0
1001
ACAD
1000
AcDbSavedByObjectVersion
1070
     0
  0
VISUALSTYLE
  5
36
102
{ACAD_REACTORS
330
2A
102
}
330
2A
100
AcDbVisualStyle
  2
Brighten
 70
    12
 71
     2
 72
     2
 73
     0
 90
        0
 40
-0.6
 41
-30.0
 62
     5
 63
     7
 74
     1
 91
        4
 64
     7
 65
   257
 75
     1
175
     1
 42
1.0
 92
        8
 66
     7
 43
1.0
 76
     1
 77
     6
 78
     2
 67
     7
 79
     5
170
     0
171
     0
290
     0
174
     0
 93
        1
 44
50.0
173
     0
291
     1
 45
0.0
1001
ACAD
1000
AcDbSavedByObjectVersion
1070
     0
  0
VISUALSTYLE
  5
3A
102
{ACAD_REACTORS
330
2A
102
}
330
2A
100
AcDbVisualStyle
  2
ColorChange
 70
    16
 71
     2
 72
     2
 73
     3
 90
        0
 40
-0.6
 41
-30.0
 62
     5
 63
     8
 74
     1
 91
        4
 64
     7
 65
   257
 75
     1
175
     1
 42
1.0
 92
        8
 66
     8
 43
1.0
 76
     1
 77
     6
 78
     2
 67
     7
 79
     5
170
     0
171
     0
290
     0
174
     0
 93
        1
 44
0.0
173
     0
291
     1
 45
0.0
1001
ACAD
1000
AcDbSavedByObjectVersion
1070
     0
  0
VISUALSTYLE
  5
34
102
{ACAD_REACTORS
330
2A
102
}
330
2A
100
AcDbVisualStyle
  2
Conceptual
 70
     9
 71
     3
 72
     2
 73
     0
 90
        0
 40
-0.6
 41
-30.0
 62
     5
 63
     7
 74
     2
 91
        2
 64
     7
 65
   257
 75
     1
175
     1
 42
40.0
 92
        8
 66
     7
 43
1.0
 76
     1
 77
     6
 78
     2
 67
     7
 79
     3
170
     0
171
     0
290
     0
174
     0
 93
        1
 44
0.0
173
     0
291
     0
 45
0.0
1001
ACAD
1000
AcDbSavedByObjectVersion
1070
     0
  0
VISUALSTYLE
  5
35
102
{ACAD_REACTORS
330
2A
102
}
330
2A
100
AcDbVisualStyle
  2
Dim
 70
    11
 71
     2
 72
     2
 73
     0
 90
        0
 40
-0.6
 41
-30.0
 62
     5
 63
     7
 74
     1
 91
        4
 64
     7
 65
   257
 75
     1
175
     1
 42
1.0
 92
        8
 66
     7
 43
1.0
 76
     1
 77
     6
 78
     2
 67
     7
 79
     5
170
     0
171
     0
290
     0
174
     0
 93
        1
 44
-50.0
173
     0
291
     1
 45
0.0
1001
ACAD
1000
AcDbSavedByObjectVersion
1070
     0
  0
VISUALSTYLE
  5
39
102
{ACAD_REACTORS
330
2A
102
}
330
2A
100
AcDbVisualStyle
  2
Facepattern
 70
    15
 71
     2
 72
     2
 73
     0
 90
        0
 40
-0.6
 41
-30.0
 62
     5
 63
     7
 74
     1
 91
        4
 64
     7
 65
   257
 75
     1
175
     1
 42
1.0
 92
        8
 66
     7
 43
1.0
 76
     1
 77
     6
 78
     2
 67
     7
 79
     5
170
     0
171
     0
290
     0
174
     0
 93
        1
 44
0.0
173
     0
291
     1
 45
0.0
1001
ACAD
1000
AcDbSavedByObjectVersion
1070
     0
  0
VISUALSTYLE
  5
2B
102
{ACAD_REACTORS
330
2A
102
}
330
2A
100
AcDbVisualStyle
  2
Flat
 70
     0
 71
     2
 72
     1
 73
     1
 90
        2
 40
-0.6
 41
30.0
 62
     5
 63
     7
 74
     0
 91
        4
 64
     7
 65
   257
 75
     1
175
     1
 42
1.0
 92
        8
 66
     7
 43
1.0
 76
     1
 77
     6
 78
     2
 67
     7
 79
     5
170
     0
171
     0
290
     0
174
     0
 93
       13
 44
0.0
173
     0
291
     1
 45
0.0
1001
ACAD
1000
AcDbSavedByObjectVersion
1070
     0
  0
VISUALSTYLE
  5
2C
102
{ACAD_REACTORS
330
2A
102
}
330
2A
100
AcDbVisualStyle
  2
FlatWithEdges
 70
     1
 71
     2
 72
     1
 73
     1
 90
        2
 40
-0.6
 41
30.0
 62
     5
 63
     7
 74
     1
 91
        4
 64
     7
 65
   257
 75
     1
175
     1
 42
1.0
 92
        0
 66
   257
 43
1.0
 76
     1
 77
     6
 78
     2
 67
     7
 79
     5
170
     0
171
     0
290
     0
174
     0
 93
       13
 44
0.0
173
     0
291
     1
 45
0.0
1001
ACAD
1000
AcDbSavedByObjectVersion
1070
     0
  0
VISUALSTYLE
  5
2D
102
{ACAD_REACTORS
330
2A
102
}
330
2A
100
AcDbVisualStyle
  2
Gouraud
 70
     2
 71
     2
 72
     2
 73
     1
 90
        2
 40
-0.6
 41
30.0
 62
     5
 63
     7
 74
     0
 91
        4
 64
     7
 65
   257
 75
     1
175
     1
 42
1.0
 92
        0
 66
     7
 43
1.0
 76
     1
 77
     6
 78
     2
 67
     7
 79
     5
170
     0
171
     0
290
     0
174
     0
 93
       13
 44
0.0
173
     0
291
     1
 45
0.0
1001
ACAD
1000
AcDbSavedByObjectVersion
1070
     0
  0
VISUALSTYLE
  5
2E
102
{ACAD_REACTORS
330
2A
102
}
330
2A
100
AcDbVisualStyle
  2
GouraudWithEdges
 70
     3
 71
     2
 72
     2
 73
     1
 90
        2
 40
-0.6
 41
30.0
 62
     5
 63
     7
 74
     1
 91
        4
 64
     7
 65
   257
 75
     1
175
     1
 42
1.0
 92
        0
 66
   257
 43
1.0
 76
     1
 77
     6
 78
     2
 67
     7
 79
     5
170
     0
171
     0
290
     0
174
     0
 93
       13
 44
0.0
173
     0
291
     1
 45
0.0
1001
ACAD
1000
AcDbSavedByObjectVersion
1070
     0
  0
VISUALSTYLE
  5
38
102
{ACAD_REACTORS
330
2A
102
}
330
2A
100
AcDbVisualStyle
  2
Linepattern
 70
    14
 71
     2
 72
     2
 73
     0
 90
        0
 40
-0.6
 41
-30.0
 62
     5
 63
     7
 74
     1
 91
        4
 64
     7
 65
   257
 75
     7
175
     7
 42
1.0
 92
        8
 66
     7
 43
1.0
 76
     1
 77
     6
 78
     2
 67
     7
 79
     5
170
     0
171
     0
290
     0
174
     0
 93
        1
 44
0.0
173
     0
291
     1
 45
0.0
1001
ACAD
1000
AcDbSavedByObjectVersion
1070
     0
  0
VISUALSTYLE
  5
33
102
{ACAD_REACTORS
330
2A
102
}
330
2A
100
AcDbVisualStyle
  2
Realistic
 70
     8
 71
     2
 72
     2
 73
     0
 90
        0
 40
-0.6
 41
-30.0
 62
     5
 63
     7
 74
     1
 91
        0
 64
     7
 65
   257
 75
     1
175
     1
 42
1.0
 92
        8
 66
     8
 43
1.0
 76
     1
 77
     6
 78
     2
 67
     7
 79
     5
170
     0
171
     0
290
     0
174
     0
 93
       13
 44
0.0
173
     0
291
     0
 45
0.0
1001
ACAD
1000
AcDbSavedByObjectVersion
1070
     0
  0
VISUALSTYLE
  5
37
102
{ACAD_REACTORS
330
2A
102
}
330
2A
100
AcDbVisualStyle
  2
Thicken
 70
    13
 71
     2
 72
     2
 73
     0
 90
        0
 40
-0.6
 41
-30.0
 62
     5
 63
     7
 74
     1
 91
        4
 64
     7
 65
   257
 75
     1
175
     1
 42
1.0
 92
       12
 66
     7
 43
1.0
 76
     1
 77
     6
 78
     2
 67
     7
 79
     5
170
     0
171
     0
290
     0
174
     0
 93
        1
 44
0.0
173
     0
291
     1
 45
0.0
1001
ACAD
1000
AcDbSavedByObjectVersion
1070
     0
  0
ENDSEC
  0
EOF
